<?xml version="1.0" encoding="UTF-8"?>
<svg width="180px" height="35px" viewBox="0 0 180 35" version="1.1" xmlns="http://www.w3.org/2000/svg" xmlns:xlink="http://www.w3.org/1999/xlink">
    <!-- Generator: Sketch 50.2 (55047) - http://www.bohemiancoding.com/sketch -->
    <title>Logo</title>
    <desc>Created with Sketch.</desc>
    <defs>
        <polygon id="path-1" points="0.271046512 0.569638788 20.3978198 0.569638788 20.3978198 22.060063 0.271046512 22.060063"></polygon>
        <polygon id="path-3" points="0 0.289333333 22.08 0.289333333 22.08 27.9892 0 27.9892"></polygon>
    </defs>
    <g id="Web" stroke="none" stroke-width="1" fill="none" fill-rule="evenodd">
        <g id="1.-Sign-In" transform="translate(-510.000000, -227.000000)">
            <g id="Logo" transform="translate(510.000000, 227.000000)">
                <path d="M36.99483,24.4686039 C33.140905,24.4686039 30.1222163,21.4074858 30.1222163,17.5 C30.1222163,13.5925142 33.140905,10.5307328 36.99483,10.5307328 C40.8277097,10.5307328 43.831272,13.5925142 43.831272,17.5 C43.831272,21.4074858 40.8277097,24.4686039 36.99483,24.4686039 Z M43.831272,7.40527479 L43.831272,9.8256475 C42.0325545,8.00555907 39.5959005,7 36.8481704,7 C31.0521566,7 26.5116279,11.6125711 26.5116279,17.5 C26.5116279,23.3874289 31.0521566,28 36.8481704,28 C39.5959005,28 42.0325545,26.9944409 43.831272,25.1743525 L43.831272,27.5947252 L47.4418605,27.5947252 L47.4418605,7.40527479 L43.831272,7.40527479 Z" id="Fill-1" fill="#1F2B3A"></path>
                <path d="M62.7906977,10.4285659 L62.7906977,7 L57.5607713,7 L54.0924712,7 L50.2325581,7 L50.2325581,10.4285659 L54.0924712,10.4285659 L54.0924712,21.0916033 C54.0924712,23.0586146 54.6154638,24.467265 55.6892409,25.3985041 C56.6190056,26.2041756 57.8999586,26.6 59.6375827,26.6 C60.3671195,26.6 61.1787687,26.5298862 62.078215,26.3909333 L62.7906977,26.2813008 L62.7906977,23.0350309 L61.8779871,23.1166179 C60.0974119,23.2759675 58.5777015,23.3639285 58.0136526,22.8412618 C57.7085736,22.5601691 57.5607713,21.9877854 57.5607713,21.0916033 L57.5607713,10.4285659 L62.7906977,10.4285659 Z" id="Fill-3" fill="#1F2B3A"></path>
                <path d="M74.6689192,24.4686039 C70.8151153,24.4686039 67.7965215,21.4074858 67.7965215,17.5 C67.7965215,13.5925142 70.8151153,10.5307328 74.6689192,10.5307328 C78.5023361,10.5307328 81.5058041,13.5925142 81.5058041,17.5 C81.5058041,21.4074858 78.5023361,24.4686039 74.6689192,24.4686039 Z M81.5058041,7.40527479 L81.5058041,9.8256475 C79.7064854,8.00555907 77.269908,7 74.5229219,7 C68.7264325,7 64.1860465,11.6125711 64.1860465,17.5 C64.1860465,23.3874289 68.7264325,28 74.5229219,28 C77.269908,28 79.7064854,26.9944409 81.5058041,25.1743525 L81.5058041,27.5947252 L85.1162791,27.5947252 L85.1162791,7.40527479 L81.5058041,7.40527479 Z" id="Fill-5" fill="#1F2B3A"></path>
                <path d="M101.162791,10.5351992 C105.022486,10.5351992 108.04621,13.6001898 108.04621,17.5126186 C108.04621,21.4250474 105.022486,24.4907021 101.162791,24.4907021 C97.3024368,24.4907021 94.2780538,21.4250474 94.2780538,17.5126186 C94.2780538,13.6001898 97.3024368,10.5351992 101.162791,10.5351992 M101.272145,7 C98.5007276,7 96.0613265,8.01878558 94.2780538,9.86508539 L94.2780538,7.40578748 L90.6976744,7.40578748 L90.6976744,35 L94.2780538,35 L94.2780538,25.1601518 C96.062644,27.0071157 98.5007276,28.0259013 101.272145,28.0259013 C107.079145,28.0259013 111.627907,23.4081594 111.627907,17.5126186 C111.627907,11.6177419 107.079145,7 101.272145,7" id="Fill-7" fill="#1F2B3A"></path>
                <path d="M124.901477,24.4686039 C121.047673,24.4686039 118.02908,21.4074858 118.02908,17.5 C118.02908,13.5925142 121.047673,10.5307328 124.901477,10.5307328 C128.734237,10.5307328 131.738362,13.5925142 131.738362,17.5 C131.738362,21.4074858 128.734237,24.4686039 124.901477,24.4686039 Z M131.738362,7.40527479 L131.738362,9.8256475 C129.939044,8.00555907 127.502466,7 124.75548,7 C118.958991,7 114.418605,11.6125711 114.418605,17.5 C114.418605,23.3874289 118.958991,28 124.75548,28 C127.502466,28 129.939044,26.9944409 131.738362,25.1743525 L131.738362,27.5947252 L135.348837,27.5947252 L135.348837,7.40527479 L131.738362,7.40527479 Z" id="Fill-9" fill="#1F2B3A"></path>
                <path d="M155.858899,20.2869326 L155.402394,21.1028144 C154.223845,23.2108405 151.923896,24.4691557 149.248985,24.4691557 C145.097229,24.4691557 141.965814,21.4729461 141.965814,17.4996683 C141.965814,13.5270539 145.097229,10.5308443 149.248985,10.5308443 C151.967804,10.5308443 154.271935,11.8030892 155.263003,13.8507533 L155.689539,14.7342936 L158.884378,12.9552734 L158.532416,12.229603 C156.96845,9.00322183 153.410499,7 149.248985,7 C142.915762,7 138.139535,11.513219 138.139535,17.4996683 C138.139535,23.4861177 142.915762,28 149.248985,28 C153.32338,28 156.931512,26.0246375 158.667625,22.8446887 L159.069767,22.1070786 L155.858899,20.2869326 Z" id="Fill-11" fill="#1F2B3A"></path>
                <g id="Group-15" transform="translate(159.069767, 5.600000)">
                    <mask id="mask-2" fill="white">
                        <use xlink:href="#path-1"></use>
                    </mask>
                    <g id="Clip-14"></g>
                    <path d="M4.0378343,9.5459297 C4.70825581,6.29996606 7.22511628,4.18350545 10.5523692,4.18350545 C13.1542587,4.18350545 15.9216279,5.85128727 16.6384884,9.5459297 L4.0378343,9.5459297 Z M10.5523692,0.569638788 C4.59575581,0.569638788 0.271046512,5.08900848 0.271046512,11.3148509 C0.271046512,17.5413721 4.65593023,22.060063 10.6975727,22.060063 C14.4153052,22.060063 17.6549128,20.3040388 19.3646512,17.3621721 L19.8166134,16.5829236 L16.690814,14.6653479 L16.259782,15.4826085 C15.2799855,17.3384145 13.2150872,18.4461964 10.7335465,18.4461964 C7.36508721,18.4461964 4.7887064,16.3765721 4.05811047,13.1971297 L20.3614535,13.1971297 L20.3614535,12.2956994 C20.3614535,12.1633358 20.3699564,12.0316509 20.3771512,11.8992873 C20.3882703,11.7295903 20.3980814,11.5598933 20.3980814,11.3901964 C20.3980814,6.14520242 16.9465552,0.569638788 10.5523692,0.569638788 Z" id="Fill-13" fill="#1F2B3A" mask="url(#mask-2)"></path>
                </g>
                <g id="Group-18">
                    <mask id="mask-4" fill="white">
                        <use xlink:href="#path-3"></use>
                    </mask>
                    <g id="Clip-17"></g>
                    <path d="M9.88589147,0.2892 L0,0.2892 L0,3.91986667 L3.47348837,3.91986667 L3.47348837,3.91253333 L9.88589147,3.91253333 C14.9587597,3.91253333 18.6406202,8.2132 18.6406202,14.1392 C18.6406202,20.0652 14.9587597,24.3652 9.88589147,24.3652 L9.34697674,24.3652 L9.34697674,24.3738667 L0,24.3738667 L0,27.9892 L9.88589147,27.9892 C16.8378295,27.9892 22.08,22.0352 22.08,14.1392 C22.08,6.24386667 16.8378295,0.2892 9.88589147,0.2892" id="Fill-16" fill="#1F2B3A" mask="url(#mask-4)"></path>
                </g>
            </g>
        </g>
    </g>
</svg>