<?xml version="1.0" encoding="UTF-8"?>
<svg width="18px" height="40px" viewBox="0 0 18 40" version="1.1" xmlns="http://www.w3.org/2000/svg" xmlns:xlink="http://www.w3.org/1999/xlink">
    <!-- Generator: Sketch 50.2 (55047) - http://www.bohemiancoding.com/sketch -->
    <title>Artboard</title>
    <desc>Created with Sketch.</desc>
    <defs></defs>
    <g id="Artboard" stroke="none" stroke-width="1" fill="none" fill-rule="evenodd">
        <g id="access" transform="translate(0.000000, 2.000000)" fill-rule="nonzero">
            <g fill="#9EAFC8">
              <path d="M12.9166667,15 C12.9537615,15 13,14.9519831 13,14.875 L13,8.125 C13,8.0480169 12.9537615,8 12.9166667,8 L2.08333333,8 C2.0462385,8 2,8.0480169 2,8.125 L2,14.875 C2,14.9519831 2.0462385,15 2.08333333,15 L12.9166667,15 Z M12.9166667,17 L2.08333333,17 C0.924428167,17 0,16.0400169 0,14.875 L0,8.125 C0,6.9599831 0.924428167,6 2.08333333,6 L12.9166667,6 C14.0755718,6 15,6.9599831 15,8.125 L15,14.875 C15,16.0400169 14.0755718,17 12.9166667,17 Z" id="Stroke-93"></path>
              <path d="M5,7 C5,7.55228475 4.55228475,8 4,8 C3.44771525,8 3,7.55228475 3,7 L3,4 C3,1.75356296 5.04582345,0 7.5,0 C9.95417655,0 12,1.75356296 12,4 L12,7 C12,7.55228475 11.5522847,8 11,8 C10.4477153,8 10,7.55228475 10,7 L10,4 C10,2.93243704 8.91215679,2 7.5,2 C6.08784321,2 5,2.93243704 5,4 L5,7 Z" id="Stroke-94"></path>
            </g>
            <g id="access-active" transform="translate(0.000000, 24.000000)" fill="#007DFF">
              <path d="M12.9166667,15 C12.9537615,15 13,14.9519831 13,14.875 L13,8.125 C13,8.0480169 12.9537615,8 12.9166667,8 L2.08333333,8 C2.0462385,8 2,8.0480169 2,8.125 L2,14.875 C2,14.9519831 2.0462385,15 2.08333333,15 L12.9166667,15 Z M12.9166667,17 L2.08333333,17 C0.924428167,17 0,16.0400169 0,14.875 L0,8.125 C0,6.9599831 0.924428167,6 2.08333333,6 L12.9166667,6 C14.0755718,6 15,6.9599831 15,8.125 L15,14.875 C15,16.0400169 14.0755718,17 12.9166667,17 Z" id="Stroke-93"></path>
              <path d="M5,7 C5,7.55228475 4.55228475,8 4,8 C3.44771525,8 3,7.55228475 3,7 L3,4 C3,1.75356296 5.04582345,0 7.5,0 C9.95417655,0 12,1.75356296 12,4 L12,7 C12,7.55228475 11.5522847,8 11,8 C10.4477153,8 10,7.55228475 10,7 L10,4 C10,2.93243704 8.91215679,2 7.5,2 C6.08784321,2 5,2.93243704 5,4 L5,7 Z" id="Stroke-94"></path>
            </g>
        </g>
    </g>
</svg>
