<?xml version="1.0" encoding="UTF-8"?>
<svg width="18px" height="40px" viewBox="0 0 18 40" version="1.1" xmlns="http://www.w3.org/2000/svg" xmlns:xlink="http://www.w3.org/1999/xlink">
    <!-- Generator: Sketch 50.2 (55047) - http://www.bohemiancoding.com/sketch -->
    <title>Artboard</title>
    <desc>Created with Sketch.</desc>
    <defs></defs>
    <g id="Artboard" stroke="none" stroke-width="1" fill="none" fill-rule="evenodd">
        <g id="ai" transform="translate(0.000000, 2.000000)" fill-rule="nonzero">
            <g fill="#9EAFC8">
              <path d="M3.53999011,3.99804433 L8,5.90823109 L12.4600099,3.99804433 L8,2.08785756 L3.53999011,3.99804433 Z M0.60629768,3.07880634 L7.60629768,0.0807620097 C7.85772117,-0.0269206699 8.14227883,-0.0269206699 8.39370232,0.0807620097 L15.3937023,3.07880634 C16.2020992,3.4250363 16.2020992,4.57105235 15.3937023,4.91728232 L8.39370232,7.91532665 C8.14227883,8.02300933 7.85772117,8.02300933 7.60629768,7.91532665 L0.60629768,4.91728232 C-0.202099227,4.57105235 -0.202099227,3.4250363 0.60629768,3.07880634 Z" id="Stroke-461"></path>
              <path d="M7,6.99804433 C7,6.44575958 7.44771525,5.99804433 8,5.99804433 C8.55228475,5.99804433 9,6.44575958 9,6.99804433 L9,14.9928292 C9,15.7106432 8.26613954,16.1946722 7.60629768,15.9120672 L0.60629768,12.9140229 C0.238497803,12.7564971 0,12.3948988 0,11.9947849 L0,4 C0,3.44771525 0.44771525,3 1,3 C1.55228475,3 2,3.44771525 2,4 L2,11.3352194 L7,13.4766796 L7,6.99804433 Z" id="Stroke-462"></path>
              <path d="M14,11.3352194 L14,4 C14,3.44771525 14.4477153,3 15,3 C15.5522847,3 16,3.44771525 16,4 L16,11.9947849 C16,12.3948988 15.7615022,12.7564971 15.3937023,12.9140229 L8.39370232,15.9120672 C7.8860212,16.129503 7.2981978,15.8942126 7.08076201,15.3865315 C6.86332622,14.8788504 7.09861656,14.291027 7.60629768,14.0735912 L14,11.3352194 Z" id="Stroke-463"></path>
            </g>
            <g id="ai-active" transform="translate(0.000000, 24.000000)" fill="#007DFF">
              <path d="M3.53999011,3.99804433 L8,5.90823109 L12.4600099,3.99804433 L8,2.08785756 L3.53999011,3.99804433 Z M0.60629768,3.07880634 L7.60629768,0.0807620097 C7.85772117,-0.0269206699 8.14227883,-0.0269206699 8.39370232,0.0807620097 L15.3937023,3.07880634 C16.2020992,3.4250363 16.2020992,4.57105235 15.3937023,4.91728232 L8.39370232,7.91532665 C8.14227883,8.02300933 7.85772117,8.02300933 7.60629768,7.91532665 L0.60629768,4.91728232 C-0.202099227,4.57105235 -0.202099227,3.4250363 0.60629768,3.07880634 Z" id="Stroke-461"></path>
              <path d="M7,6.99804433 C7,6.44575958 7.44771525,5.99804433 8,5.99804433 C8.55228475,5.99804433 9,6.44575958 9,6.99804433 L9,14.9928292 C9,15.7106432 8.26613954,16.1946722 7.60629768,15.9120672 L0.60629768,12.9140229 C0.238497803,12.7564971 0,12.3948988 0,11.9947849 L0,4 C0,3.44771525 0.44771525,3 1,3 C1.55228475,3 2,3.44771525 2,4 L2,11.3352194 L7,13.4766796 L7,6.99804433 Z" id="Stroke-462"></path>
              <path d="M14,11.3352194 L14,4 C14,3.44771525 14.4477153,3 15,3 C15.5522847,3 16,3.44771525 16,4 L16,11.9947849 C16,12.3948988 15.7615022,12.7564971 15.3937023,12.9140229 L8.39370232,15.9120672 C7.8860212,16.129503 7.2981978,15.8942126 7.08076201,15.3865315 C6.86332622,14.8788504 7.09861656,14.291027 7.60629768,14.0735912 L14,11.3352194 Z" id="Stroke-463"></path>
            </g>
        </g>
    </g>
</svg>
