<?xml version="1.0" encoding="UTF-8"?>
<svg width="9px" height="12px" viewBox="0 0 9 12" version="1.1" xmlns="http://www.w3.org/2000/svg" xmlns:xlink="http://www.w3.org/1999/xlink">
    <!-- Generator: Sketch 50.2 (55047) - http://www.bohemiancoding.com/sketch -->
    <title>Group</title>
    <desc>Created with Sketch.</desc>
    <defs></defs>
    <g id="Page-1" stroke="none" stroke-width="1" fill="none" fill-rule="evenodd">
        <g id="Group" fill-rule="nonzero">
            <path d="M1.93773004,1.06296162 C1.35175264,0.477366207 1.35144297,-0.472381211 1.93703838,-1.05835861 C2.52263379,-1.64433602 3.47238121,-1.64464568 4.05835861,-1.05905027 L7.05835861,1.93899405 C7.64460623,2.5248595 7.64460623,3.4751405 7.05835861,4.06100595 L4.05835861,7.05905027 C3.47238121,7.64464568 2.52263379,7.64433602 1.93703838,7.05835861 C1.35144297,6.47238121 1.35175264,5.52263379 1.93773004,4.93703838 L3.87603199,3 L1.93773004,1.06296162 Z" id="Stroke-83" fill="#8291A7" transform="translate(4.498044, 3.000000) rotate(90.000000) translate(-4.498044, -3.000000) "></path>
            <path d="M1.93773004,7.06296162 C1.35175264,6.47736621 1.35144297,5.52761879 1.93703838,4.94164139 C2.52263379,4.35566398 3.47238121,4.35535432 4.05835861,4.94094973 L7.05835861,7.93899405 C7.64460623,8.5248595 7.64460623,9.4751405 7.05835861,10.0610059 L4.05835861,13.0590503 C3.47238121,13.6446457 2.52263379,13.644336 1.93703838,13.0583586 C1.35144297,12.4723812 1.35175264,11.5226338 1.93773004,10.9370384 L3.87603199,9 L1.93773004,7.06296162 Z" id="Stroke-83" fill="#353E4C" transform="translate(4.498044, 9.000000) rotate(90.000000) translate(-4.498044, -9.000000) "></path>
        </g>
    </g>
</svg>