<?xml version="1.0" encoding="UTF-8"?>
<svg width="18px" height="46px" viewBox="0 0 18 46" version="1.1" xmlns="http://www.w3.org/2000/svg" xmlns:xlink="http://www.w3.org/1999/xlink">
    <!-- Generator: Sketch 50.2 (55047) - http://www.bohemiancoding.com/sketch -->
    <title>Group</title>
    <desc>Created with Sketch.</desc>
    <defs></defs>
    <g id="Page-1" stroke="none" stroke-width="1" fill="none" fill-rule="evenodd">
        <g id="Group" fill-rule="nonzero">
            <g id="buy" fill="#9EAFC8">
                <path d="M0,9 C0,8.44771525 0.44771525,8 1,8 C1.55228475,8 2,8.44771525 2,9 L2,15 C2,15.5522847 2.44771525,16 3,16 L15,16 C15.5522847,16 16,15.5522847 16,15 L16,9 C16,8.44771525 16.4477153,8 17,8 C17.5522847,8 18,8.44771525 18,9 L18,15 C18,16.6568542 16.6568542,18 15,18 L3,18 C1.34314575,18 0,16.6568542 0,15 L0,9 Z" id="Shape"></path>
                <path d="M9,9.41421353 L5.70710678,12.7071068 C5.31658249,13.0976311 4.68341751,13.0976311 4.29289322,12.7071068 C3.90236893,12.3165825 3.90236893,11.6834175 4.29289322,11.2928932 L8.29289322,7.29289319 C8.68341751,6.9023689 9.31658249,6.9023689 9.70710678,7.29289319 L13.7071068,11.2928932 C14.0976311,11.6834175 14.0976311,12.3165825 13.7071068,12.7071068 C13.3165825,13.0976311 12.6834175,13.0976311 12.2928932,12.7071068 L9,9.41421353 Z" id="Shape" transform="translate(9.000000, 10.000000) scale(-1, 1) rotate(-180.000000) translate(-9.000000, -10.000000) "></path>
                <path d="M8,1 C8,0.44771525 8.44771525,0 9,0 C9.55228475,0 10,0.44771525 10,1 L10,12 C10,12.5522847 9.55228475,13 9,13 C8.44771525,13 8,12.5522847 8,12 L8,1 Z" id="Shape"></path>
            </g>
            <g id="buy-active" transform="translate(0.000000, 28.000000)" fill="#007DFF">
                <path d="M0,9 C0,8.44771525 0.44771525,8 1,8 C1.55228475,8 2,8.44771525 2,9 L2,15 C2,15.5522847 2.44771525,16 3,16 L15,16 C15.5522847,16 16,15.5522847 16,15 L16,9 C16,8.44771525 16.4477153,8 17,8 C17.5522847,8 18,8.44771525 18,9 L18,15 C18,16.6568542 16.6568542,18 15,18 L3,18 C1.34314575,18 0,16.6568542 0,15 L0,9 Z" id="Shape"></path>
                <path d="M9,9.41421353 L5.70710678,12.7071068 C5.31658249,13.0976311 4.68341751,13.0976311 4.29289322,12.7071068 C3.90236893,12.3165825 3.90236893,11.6834175 4.29289322,11.2928932 L8.29289322,7.29289319 C8.68341751,6.9023689 9.31658249,6.9023689 9.70710678,7.29289319 L13.7071068,11.2928932 C14.0976311,11.6834175 14.0976311,12.3165825 13.7071068,12.7071068 C13.3165825,13.0976311 12.6834175,13.0976311 12.2928932,12.7071068 L9,9.41421353 Z" id="Shape" transform="translate(9.000000, 10.000000) scale(-1, 1) rotate(-180.000000) translate(-9.000000, -10.000000) "></path>
                <path d="M8,1 C8,0.44771525 8.44771525,0 9,0 C9.55228475,0 10,0.44771525 10,1 L10,12 C10,12.5522847 9.55228475,13 9,13 C8.44771525,13 8,12.5522847 8,12 L8,1 Z" id="Shape"></path>
            </g>
        </g>
    </g>
</svg>