<?xml version="1.0" encoding="UTF-8"?>
<svg width="10px" height="20px" viewBox="0 0 10 20" version="1.1" xmlns="http://www.w3.org/2000/svg" xmlns:xlink="http://www.w3.org/1999/xlink">
    <!-- Generator: Sketch 50.2 (55047) - http://www.bohemiancoding.com/sketch -->
    <title>Group</title>
    <desc>Created with Sketch.</desc>
    <defs></defs>
    <g id="Page-1" stroke="none" stroke-width="1" fill="none" fill-rule="evenodd">
        <g id="Group" fill-rule="nonzero">
            <g id="close" fill="#8291A7">
                <path d="M8.78063801,0.209209442 C9.05958394,-0.0697364807 9.51184464,-0.0697364807 9.79079056,0.209209442 C10.0697365,0.488155365 10.0697365,0.940416064 9.79079056,1.21936199 L1.21936199,9.79079056 C0.940416064,10.0697365 0.488155365,10.0697365 0.209209442,9.79079056 C-0.0697364807,9.51184464 -0.0697364807,9.05958394 0.209209442,8.78063801 L8.78063801,0.209209442 Z" id="Shape"></path>
                <path d="M0.209209442,1.21936199 C-0.0697364807,0.940416064 -0.0697364807,0.488155365 0.209209442,0.209209442 C0.488155365,-0.0697364807 0.940416064,-0.0697364807 1.21936199,0.209209442 L9.79079056,8.78063801 C10.0697365,9.05958394 10.0697365,9.51184464 9.79079056,9.79079056 C9.51184464,10.0697365 9.05958394,10.0697365 8.78063801,9.79079056 L0.209209442,1.21936199 Z" id="Shape"></path>
            </g>
            <g id="close" transform="translate(0.000000, 10.000000)" fill="#353E4C">
                <path d="M8.78063801,0.209209442 C9.05958394,-0.0697364807 9.51184464,-0.0697364807 9.79079056,0.209209442 C10.0697365,0.488155365 10.0697365,0.940416064 9.79079056,1.21936199 L1.21936199,9.79079056 C0.940416064,10.0697365 0.488155365,10.0697365 0.209209442,9.79079056 C-0.0697364807,9.51184464 -0.0697364807,9.05958394 0.209209442,8.78063801 L8.78063801,0.209209442 Z" id="Shape"></path>
                <path d="M0.209209442,1.21936199 C-0.0697364807,0.940416064 -0.0697364807,0.488155365 0.209209442,0.209209442 C0.488155365,-0.0697364807 0.940416064,-0.0697364807 1.21936199,0.209209442 L9.79079056,8.78063801 C10.0697365,9.05958394 10.0697365,9.51184464 9.79079056,9.79079056 C9.51184464,10.0697365 9.05958394,10.0697365 8.78063801,9.79079056 L0.209209442,1.21936199 Z" id="Shape"></path>
            </g>
        </g>
    </g>
</svg>