<?xml version="1.0" encoding="UTF-8"?>
<svg width="17px" height="46px" viewBox="0 0 17 46" version="1.1" xmlns="http://www.w3.org/2000/svg" xmlns:xlink="http://www.w3.org/1999/xlink">
    <!-- Generator: Sketch 50.2 (55047) - http://www.bohemiancoding.com/sketch -->
    <title>Group</title>
    <desc>Created with Sketch.</desc>
    <defs></defs>
    <g id="Page-1" stroke="none" stroke-width="1" fill="none" fill-rule="evenodd">
        <g id="Group" fill-rule="nonzero">
            <g id="dashboard" fill="#9EAFC8">
                <path d="M1.63636364,6.94561402 L1.63636364,15.5454545 C1.63636364,15.9973239 2.00267611,16.3636364 2.45454545,16.3636364 L13.9090909,16.3636364 C14.3609602,16.3636364 14.7272727,15.9973239 14.7272727,15.5454545 L14.7272727,6.94561402 L8.18181818,1.85470493 L1.63636364,6.94561402 Z M0.315866771,5.89962091 L7.67950313,0.172348186 C7.97495717,-0.0574493953 8.3886792,-0.0574493953 8.68413323,0.172348186 L16.0477696,5.89962091 C16.2470677,6.05463053 16.3636364,6.29297146 16.3636364,6.54545455 L16.3636364,15.5454545 C16.3636364,16.9010626 15.2646989,18 13.9090909,18 L2.45454545,18 C1.09893743,18 0,16.9010626 0,15.5454545 L0,6.54545455 C0,6.29297146 0.11656869,6.05463053 0.315866771,5.89962091 Z" id="Shape"></path>
                <path d="M6.54545455,9.81818182 L6.54545455,17.1818182 C6.54545455,17.6336875 6.17914207,18 5.72727273,18 C5.27540339,18 4.90909091,17.6336875 4.90909091,17.1818182 L4.90909091,9 C4.90909091,8.54813066 5.27540339,8.18181818 5.72727273,8.18181818 L10.6363636,8.18181818 C11.088233,8.18181818 11.4545455,8.54813066 11.4545455,9 L11.4545455,17.1818182 C11.4545455,17.6336875 11.088233,18 10.6363636,18 C10.1844943,18 9.81818182,17.6336875 9.81818182,17.1818182 L9.81818182,9.81818182 L6.54545455,9.81818182 Z" id="Shape"></path>
            </g>
            <g id="dashboard-active" transform="translate(0.000000, 28.000000)" fill="#007DFF">
                <path d="M1.63636364,6.94561402 L1.63636364,15.5454545 C1.63636364,15.9973239 2.00267611,16.3636364 2.45454545,16.3636364 L13.9090909,16.3636364 C14.3609602,16.3636364 14.7272727,15.9973239 14.7272727,15.5454545 L14.7272727,6.94561402 L8.18181818,1.85470493 L1.63636364,6.94561402 Z M0.315866771,5.89962091 L7.67950313,0.172348186 C7.97495717,-0.0574493953 8.3886792,-0.0574493953 8.68413323,0.172348186 L16.0477696,5.89962091 C16.2470677,6.05463053 16.3636364,6.29297146 16.3636364,6.54545455 L16.3636364,15.5454545 C16.3636364,16.9010626 15.2646989,18 13.9090909,18 L2.45454545,18 C1.09893743,18 0,16.9010626 0,15.5454545 L0,6.54545455 C0,6.29297146 0.11656869,6.05463053 0.315866771,5.89962091 Z" id="Shape"></path>
                <path d="M6.54545455,9.81818182 L6.54545455,17.1818182 C6.54545455,17.6336875 6.17914207,18 5.72727273,18 C5.27540339,18 4.90909091,17.6336875 4.90909091,17.1818182 L4.90909091,9 C4.90909091,8.54813066 5.27540339,8.18181818 5.72727273,8.18181818 L10.6363636,8.18181818 C11.088233,8.18181818 11.4545455,8.54813066 11.4545455,9 L11.4545455,17.1818182 C11.4545455,17.6336875 11.088233,18 10.6363636,18 C10.1844943,18 9.81818182,17.6336875 9.81818182,17.1818182 L9.81818182,9.81818182 L6.54545455,9.81818182 Z" id="Shape"></path>
            </g>
        </g>
    </g>
</svg>