<?xml version="1.0" encoding="UTF-8"?>
<svg width="13px" height="14px" viewBox="0 0 13 14" version="1.1" xmlns="http://www.w3.org/2000/svg" xmlns:xlink="http://www.w3.org/1999/xlink">
    <!-- Generator: Sketch 50.2 (55047) - http://www.bohemiancoding.com/sketch -->
    <title>Artboard</title>
    <desc>Created with Sketch.</desc>
    <defs></defs>
    <g id="Artboard" stroke="none" stroke-width="1" fill="none" fill-rule="evenodd">
        <g id="Group" fill="#E30C5C" fill-rule="nonzero">
            <path d="M0.636363636,3.81818182 C0.284909705,3.81818182 0,3.53327211 0,3.18181818 C0,2.83036425 0.284909705,2.54545455 0.636363636,2.54545455 L12.0909091,2.54545455 C12.442363,2.54545455 12.7272727,2.83036425 12.7272727,3.18181818 C12.7272727,3.53327211 12.442363,3.81818182 12.0909091,3.81818182 L0.636363636,3.81818182 Z" id="Shape"></path>
            <path d="M10.1818182,3.18181818 C10.1818182,2.83036425 10.4667279,2.54545455 10.8181818,2.54545455 C11.1696357,2.54545455 11.4545455,2.83036425 11.4545455,3.18181818 L11.4545455,12.0909091 C11.4545455,13.1452709 10.5998163,14 9.54545455,14 L3.18181818,14 C2.12745639,14 1.27272727,13.1452709 1.27272727,12.0909091 L1.27272727,3.18181818 C1.27272727,2.83036425 1.55763698,2.54545455 1.90909091,2.54545455 C2.26054484,2.54545455 2.54545455,2.83036425 2.54545455,3.18181818 L2.54545455,12.0909091 C2.54545455,12.442363 2.83036425,12.7272727 3.18181818,12.7272727 L9.54545455,12.7272727 C9.89690848,12.7272727 10.1818182,12.442363 10.1818182,12.0909091 L10.1818182,3.18181818 Z M4.45454545,3.18181818 C4.45454545,3.53327211 4.16963575,3.81818182 3.81818182,3.81818182 C3.46672789,3.81818182 3.18181818,3.53327211 3.18181818,3.18181818 L3.18181818,1.90909091 C3.18181818,0.854729114 4.0365473,0 5.09090909,0 L7.63636364,0 C8.69072543,0 9.54545455,0.854729114 9.54545455,1.90909091 L9.54545455,3.18181818 C9.54545455,3.53327211 9.26054484,3.81818182 8.90909091,3.81818182 C8.55763698,3.81818182 8.27272727,3.53327211 8.27272727,3.18181818 L8.27272727,1.90909091 C8.27272727,1.55763698 7.98781757,1.27272727 7.63636364,1.27272727 L5.09090909,1.27272727 C4.73945516,1.27272727 4.45454545,1.55763698 4.45454545,1.90909091 L4.45454545,3.18181818 Z" id="Shape"></path>
            <path d="M4.45454545,6.36363636 C4.45454545,6.01218243 4.73945516,5.72727273 5.09090909,5.72727273 C5.44236302,5.72727273 5.72727273,6.01218243 5.72727273,6.36363636 L5.72727273,10.1818182 C5.72727273,10.5332721 5.44236302,10.8181818 5.09090909,10.8181818 C4.73945516,10.8181818 4.45454545,10.5332721 4.45454545,10.1818182 L4.45454545,6.36363636 Z" id="Shape"></path>
            <path d="M7,6.36363636 C7,6.01218243 7.2849097,5.72727273 7.63636364,5.72727273 C7.98781757,5.72727273 8.27272727,6.01218243 8.27272727,6.36363636 L8.27272727,10.1818182 C8.27272727,10.5332721 7.98781757,10.8181818 7.63636364,10.8181818 C7.2849097,10.8181818 7,10.5332721 7,10.1818182 L7,6.36363636 Z" id="Shape"></path>
        </g>
    </g>
</svg>