<?xml version="1.0" encoding="UTF-8"?>
<svg width="14px" height="16px" viewBox="0 0 14 16" version="1.1" xmlns="http://www.w3.org/2000/svg" xmlns:xlink="http://www.w3.org/1999/xlink">
    <!-- Generator: Sketch 50.2 (55047) - http://www.bohemiancoding.com/sketch -->
    <title>Group 3</title>
    <desc>Created with Sketch.</desc>
    <defs></defs>
    <g id="Web" stroke="none" stroke-width="1" fill="none" fill-rule="evenodd">
        <g id="4.-Sell-Stream" transform="translate(-1054.000000, -100.000000)" fill="#FFFFFF" fill-rule="nonzero">
            <g id="Upload-CSV" transform="translate(1038.000000, 86.000000)">
                <g id="Group-3" transform="translate(16.000000, 14.000000)">
                    <path d="M8,0 C8.19288472,0 8.37786938,0.0766231566 8.51425948,0.21301325 L12.8778958,4.57664961 C13.0142859,4.71303971 13.0909091,4.89802437 13.0909091,5.09090909 L13.0909091,13.8181818 C13.0909091,15.0231667 12.1140758,16 10.9090909,16 L2.18181818,16 C0.976833273,16 0,15.0231667 0,13.8181818 L0,2.18181818 C0,0.976833273 0.976833273,0 2.18181818,0 L8,0 Z M7.69875377,1.45454545 L2.18181818,1.45454545 C1.78015655,1.45454545 1.45454545,1.78015655 1.45454545,2.18181818 L1.45454545,13.8181818 C1.45454545,14.2198435 1.78015655,14.5454545 2.18181818,14.5454545 L10.9090909,14.5454545 C11.3107525,14.5454545 11.6363636,14.2198435 11.6363636,13.8181818 L11.6363636,5.39215532 L7.69875377,1.45454545 Z" id="Shape"></path>
                    <path d="M8.72727273,4.36363636 L12.3636364,4.36363636 C12.765298,4.36363636 13.0909091,4.68924745 13.0909091,5.09090909 C13.0909091,5.49257073 12.765298,5.81818182 12.3636364,5.81818182 L8,5.81818182 C7.59833836,5.81818182 7.27272727,5.49257073 7.27272727,5.09090909 L7.27272727,0.727272727 C7.27272727,0.325611091 7.59833836,0 8,0 C8.40166164,0 8.72727273,0.325611091 8.72727273,0.727272727 L8.72727273,4.36363636 Z" id="Shape"></path>
                    <path d="M9.45454545,8 C9.85620709,8 10.1818182,8.32561109 10.1818182,8.72727273 C10.1818182,9.12893436 9.85620709,9.45454545 9.45454545,9.45454545 L3.63636364,9.45454545 C3.234702,9.45454545 2.90909091,9.12893436 2.90909091,8.72727273 C2.90909091,8.32561109 3.234702,8 3.63636364,8 L9.45454545,8 Z" id="Shape"></path>
                    <path d="M9.45454545,10.9090909 C9.85620709,10.9090909 10.1818182,11.234702 10.1818182,11.6363636 C10.1818182,12.0380253 9.85620709,12.3636364 9.45454545,12.3636364 L3.63636364,12.3636364 C3.234702,12.3636364 2.90909091,12.0380253 2.90909091,11.6363636 C2.90909091,11.234702 3.234702,10.9090909 3.63636364,10.9090909 L9.45454545,10.9090909 Z" id="Shape"></path>
                    <path d="M5.09090909,5.09090909 C5.49257073,5.09090909 5.81818182,5.41652018 5.81818182,5.81818182 C5.81818182,6.21984345 5.49257073,6.54545455 5.09090909,6.54545455 L3.63636364,6.54545455 C3.234702,6.54545455 2.90909091,6.21984345 2.90909091,5.81818182 C2.90909091,5.41652018 3.234702,5.09090909 3.63636364,5.09090909 L5.09090909,5.09090909 Z" id="Shape"></path>
                </g>
            </g>
        </g>
    </g>
</svg>