<?xml version="1.0" encoding="UTF-8"?>
<svg width="14px" height="32px" viewBox="0 0 14 32" version="1.1" xmlns="http://www.w3.org/2000/svg" xmlns:xlink="http://www.w3.org/1999/xlink">
    <!-- Generator: Sketch 50.2 (55047) - http://www.bohemiancoding.com/sketch -->
    <title>Group</title>
    <desc>Created with Sketch.</desc>
    <defs></defs>
    <g id="Page-1" stroke="none" stroke-width="1" fill="none" fill-rule="evenodd">
        <g id="Group" fill-rule="nonzero">
            <g id="filter" fill="#ffffff">
                <g id="Group-29" transform="translate(7.000000, 8.000000) rotate(90.000000) translate(-7.000000, -8.000000) translate(-1.000000, 1.000000)">
                    <path d="M5.81856303,7.57781376 L0.173316853,1.15193327 C-0.226365526,0.696982128 0.109576676,0 0.728543428,0 L15.2714566,0 C15.8904233,0 16.2263655,0.696982128 15.8266831,1.15193327 L10.181437,7.57781376 L10.181437,13.2991421 C10.181437,13.8194759 9.61258183,14.1579011 9.12910189,13.9252007 L6.22051926,12.525291 C5.97417393,12.4067243 5.81856303,12.1643557 5.81856303,11.8992324 L5.81856303,7.57781376 Z M13.7042369,1.39990969 L2.29576313,1.39990969 L7.10093526,6.86954926 C7.2119444,6.99590893 7.27285434,7.15604229 7.27285434,7.32152768 L7.27285434,11.4666365 L8.72714566,12.1665913 L8.72714566,7.32152768 C8.72714566,7.15604229 8.7880556,6.99590893 8.89906474,6.86954926 L13.7042369,1.39990969 Z" id="Shape"></path>
                </g>
            </g>
            <g id="test" transform="translate(0.000000, 16.000000)" fill="#007DFF">
                <g id="Group-29" transform="translate(7.000000, 8.000000) rotate(90.000000) translate(-7.000000, -8.000000) translate(-1.000000, 1.000000)">
                    <path d="M5.81856303,7.57781376 L0.173316853,1.15193327 C-0.226365526,0.696982128 0.109576676,0 0.728543428,0 L15.2714566,0 C15.8904233,0 16.2263655,0.696982128 15.8266831,1.15193327 L10.181437,7.57781376 L10.181437,13.2991421 C10.181437,13.8194759 9.61258183,14.1579011 9.12910189,13.9252007 L6.22051926,12.525291 C5.97417393,12.4067243 5.81856303,12.1643557 5.81856303,11.8992324 L5.81856303,7.57781376 Z" id="Shape"></path>
                </g>
            </g>
        </g>
    </g>
</svg>
