<?xml version="1.0" encoding="UTF-8"?>
<svg width="16px" height="16px" viewBox="0 0 16 16" version="1.1" xmlns="http://www.w3.org/2000/svg" xmlns:xlink="http://www.w3.org/1999/xlink">
    <!-- Generator: Sketch 50.2 (55047) - http://www.bohemiancoding.com/sketch -->
    <title>Group</title>
    <desc>Created with Sketch.</desc>
    <defs></defs>
    <g id="Web" stroke="none" stroke-width="1" fill="none" fill-rule="evenodd">
        <g id="8.1.-Small-contract-help" transform="translate(-914.000000, -100.000000)" fill="#FFFFFF" fill-rule="nonzero">
            <g id="Help" transform="translate(900.000000, 86.000000)">
                <g id="Group" transform="translate(14.000000, 14.000000)">
                    <path d="M8,16 C3.581722,16 0,12.418278 0,8 C0,3.581722 3.581722,0 8,0 C12.418278,0 16,3.581722 16,8 C16,12.418278 12.418278,16 8,16 Z M8,14.5454545 C11.6149547,14.5454545 14.5454545,11.6149547 14.5454545,8 C14.5454545,4.38504527 11.6149547,1.45454545 8,1.45454545 C4.38504527,1.45454545 1.45454545,4.38504527 1.45454545,8 C1.45454545,11.6149547 4.38504527,14.5454545 8,14.5454545 Z" id="Oval"></path>
                    <path d="M8.72727273,10.9090909 C8.72727273,11.3107525 8.40166164,11.6363636 8,11.6363636 C7.59833836,11.6363636 7.27272727,11.3107525 7.27272727,10.9090909 L7.27272727,8 C7.27272727,7.59833836 7.59833836,7.27272727 8,7.27272727 C8.40166164,7.27272727 8.72727273,7.59833836 8.72727273,8 L8.72727273,10.9090909 Z" id="Shape"></path>
                    <path d="M8.72727273,4.90909091 C8.72727273,5.31075255 8.40166164,5.63636364 8,5.63636364 C7.59833836,5.63636364 7.27272727,5.31075255 7.27272727,4.90909091 L7.27272727,5 C7.27272727,4.59833836 7.59833836,4.27272727 8,4.27272727 C8.40166164,4.27272727 8.72727273,4.59833836 8.72727273,5 L8.72727273,4.90909091 Z" id="Shape"></path>
                </g>
            </g>
        </g>
    </g>
</svg>