<?xml version="1.0" encoding="UTF-8"?>
<svg width="16px" height="32px" viewBox="0 0 16 32" version="1.1" xmlns="http://www.w3.org/2000/svg" xmlns:xlink="http://www.w3.org/1999/xlink">
    <!-- Generator: Sketch 50.2 (55047) - http://www.bohemiancoding.com/sketch -->
    <title>Group</title>
    <desc>Created with Sketch.</desc>
    <defs></defs>
    <g id="Page-1" stroke="none" stroke-width="1" fill="none" fill-rule="evenodd">
        <g id="Group" fill-rule="nonzero">
            <g id="Group-4" fill="#9EAFC8">
                <path d="M5.6,14.4 C6.0418278,14.4 6.4,14.7581722 6.4,15.2 C6.4,15.6418278 6.0418278,16 5.6,16 L2.4,16 C1.0745166,16 0,14.9254834 0,13.6 L0,2.4 C0,1.0745166 1.0745166,0 2.4,0 L5.6,0 C6.0418278,0 6.4,0.3581722 6.4,0.8 C6.4,1.2418278 6.0418278,1.6 5.6,1.6 L2.4,1.6 C1.9581722,1.6 1.6,1.9581722 1.6,2.4 L1.6,13.6 C1.6,14.0418278 1.9581722,14.4 2.4,14.4 L5.6,14.4 Z" id="Shape"></path>
                <path d="M14.0686292,8 L10.6343146,4.56568542 C10.3218951,4.25326599 10.3218951,3.74673401 10.6343146,3.43431458 C10.946734,3.12189514 11.453266,3.12189514 11.7656854,3.43431458 L15.7656854,7.43431458 C16.0781049,7.74673401 16.0781049,8.25326599 15.7656854,8.56568542 L11.7656854,12.5656854 C11.453266,12.8781049 10.946734,12.8781049 10.6343146,12.5656854 C10.3218951,12.253266 10.3218951,11.746734 10.6343146,11.4343146 L14.0686292,8 Z" id="Shape"></path>
                <path d="M15.2,7.2 C15.6418278,7.2 16,7.5581722 16,8 C16,8.4418278 15.6418278,8.8 15.2,8.8 L5.6,8.8 C5.1581722,8.8 4.8,8.4418278 4.8,8 C4.8,7.5581722 5.1581722,7.2 5.6,7.2 L15.2,7.2 Z" id="Shape"></path>
            </g>
            <g id="Group-4" transform="translate(0.000000, 16.000000)" fill="#353E4C">
                <path d="M5.6,14.4 C6.0418278,14.4 6.4,14.7581722 6.4,15.2 C6.4,15.6418278 6.0418278,16 5.6,16 L2.4,16 C1.0745166,16 0,14.9254834 0,13.6 L0,2.4 C0,1.0745166 1.0745166,0 2.4,0 L5.6,0 C6.0418278,0 6.4,0.3581722 6.4,0.8 C6.4,1.2418278 6.0418278,1.6 5.6,1.6 L2.4,1.6 C1.9581722,1.6 1.6,1.9581722 1.6,2.4 L1.6,13.6 C1.6,14.0418278 1.9581722,14.4 2.4,14.4 L5.6,14.4 Z" id="Shape"></path>
                <path d="M14.0686292,8 L10.6343146,4.56568542 C10.3218951,4.25326599 10.3218951,3.74673401 10.6343146,3.43431458 C10.946734,3.12189514 11.453266,3.12189514 11.7656854,3.43431458 L15.7656854,7.43431458 C16.0781049,7.74673401 16.0781049,8.25326599 15.7656854,8.56568542 L11.7656854,12.5656854 C11.453266,12.8781049 10.946734,12.8781049 10.6343146,12.5656854 C10.3218951,12.253266 10.3218951,11.746734 10.6343146,11.4343146 L14.0686292,8 Z" id="Shape"></path>
                <path d="M15.2,7.2 C15.6418278,7.2 16,7.5581722 16,8 C16,8.4418278 15.6418278,8.8 15.2,8.8 L5.6,8.8 C5.1581722,8.8 4.8,8.4418278 4.8,8 C4.8,7.5581722 5.1581722,7.2 5.6,7.2 L15.2,7.2 Z" id="Shape"></path>
            </g>
        </g>
    </g>
</svg>