<?xml version="1.0" encoding="UTF-8"?>
<svg width="36px" height="55px" viewBox="0 0 36 55" version="1.1" xmlns="http://www.w3.org/2000/svg" xmlns:xlink="http://www.w3.org/1999/xlink">
    <!-- Generator: Sketch 50.2 (55047) - http://www.bohemiancoding.com/sketch -->
    <title>Group 17 Copy 3</title>
    <desc>Created with Sketch.</desc>
    <defs>
        <filter x="-48.5%" y="-213.6%" width="197.1%" height="527.2%" filterUnits="objectBoundingBox" id="filter-1">
            <feGaussianBlur stdDeviation="3.56026786" in="SourceGraphic"></feGaussianBlur>
        </filter>
    </defs>
    <g id="Page-1" stroke="none" stroke-width="1" fill="none" fill-rule="evenodd">
        <g id="Group-17-Copy-3" transform="translate(3.000000, 0.000000)">
            <ellipse id="Oval-3" fill="#6F829F" opacity="0.9" filter="url(#filter-1)" cx="15" cy="43.5" rx="11" ry="2.5"></ellipse>
            <g id="Group-16">
                <path d="M15,42.3916016 C25,29.6533814 30,20.5228475 30,15 C30,6.71572875 23.2842712,0 15,0 C6.71572875,0 0,6.71572875 0,15 C0,20.5228475 5,29.6533814 15,42.3916016 Z" id="Oval-2" fill="#06D2D8"></path>
                <circle id="Oval-2" fill="#10B1B6" cx="15" cy="15" r="12"></circle>
            </g>
            <path d="M9.98447394,19.3406772 C9.91099529,19.8573403 9.23460132,20.0040639 8.95365063,19.5642839 L7.0885351,16.6447656 C6.92130354,16.3829933 6.99794396,16.035217 7.25971625,15.8679854 C7.52148855,15.7007539 7.86926489,15.7773943 8.03649645,16.0391666 L9.08449419,17.6796272 L10.5345992,7.48325492 C10.6271067,6.83279075 11.5693769,6.84162567 11.6496715,7.49371007 L12.9134775,17.7572705 L13.8796182,12.9461762 C13.9831282,12.4307268 14.674289,12.3264441 14.9252716,12.7884075 L15.9672016,14.7062041 L17.2128315,10.8700674 C17.382516,10.3474941 18.1238343,10.3532597 18.2853701,10.8784091 L19.358137,14.3659503 L20.5260555,9.35017664 C20.6674484,8.7429471 21.5448415,8.78258265 21.630908,9.40008749 L22.994546,19.1838424 C23.0374265,19.4914987 22.8227832,19.7756649 22.5151269,19.8185453 C22.2074706,19.8614258 21.9233045,19.6467826 21.880424,19.3391263 L20.934842,12.5548165 L19.9810802,16.6508673 C19.8508228,17.210274 19.064569,17.2376631 18.8957008,16.6886765 L17.7332704,12.9096413 L16.6328372,16.2986191 C16.4802729,16.7684676 15.839499,16.8274926 15.6036699,16.393421 L14.6771663,14.6880805 L13.3316806,21.3882011 C13.2059931,22.0140875 12.3000322,21.9797983 12.2220141,21.346202 L11.0513438,11.8390116 L9.98447394,19.3406772 Z" id="Path-2-Copy-3" fill="#FFFFFF" fill-rule="nonzero"></path>
        </g>
    </g>
</svg>