<?xml version="1.0" encoding="UTF-8"?>
<svg width="36px" height="55px" viewBox="0 0 36 55" version="1.1" xmlns="http://www.w3.org/2000/svg" xmlns:xlink="http://www.w3.org/1999/xlink">
    <!-- Generator: Sketch 50.2 (55047) - http://www.bohemiancoding.com/sketch -->
    <title>Group 17 Copy</title>
    <desc>Created with Sketch.</desc>
    <defs>
        <filter x="-48.5%" y="-213.6%" width="197.1%" height="527.2%" filterUnits="objectBoundingBox" id="filter-1">
            <feGaussianBlur stdDeviation="3.56026786" in="SourceGraphic"></feGaussianBlur>
        </filter>
    </defs>
    <g id="Page-1" stroke="none" stroke-width="1" fill="none" fill-rule="evenodd">
        <g id="Group-17-Copy" transform="translate(3.000000, 0.000000)">
            <ellipse id="Oval-3" fill="#6F829F" opacity="0.9" filter="url(#filter-1)" cx="15" cy="43.5" rx="11" ry="2.5"></ellipse>
            <g id="Group-16">
                <path d="M15,42.3916016 C25,29.6533814 30,20.5228475 30,15 C30,6.71572875 23.2842712,0 15,0 C6.71572875,0 0,6.71572875 0,15 C0,20.5228475 5,29.6533814 15,42.3916016 Z" id="Oval-2" fill="#06D2D8"></path>
                <circle id="Oval-2" fill="#10B1B6" cx="15" cy="15" r="12"></circle>
            </g>
            <g id="drop" transform="translate(9.000000, 7.000000)" fill="#FFFFFF" fill-rule="nonzero">
                <path d="M5.91979221,15.9952208 C2.6907013,15.9952208 0.0635844156,13.3681039 0.0635844156,10.1392208 C0.0635844156,7.12 4.88124675,0.932571429 5.43044156,0.237090909 C5.54867532,0.0874805195 5.72903896,0 5.91958442,0 C6.11012987,0 6.29049351,0.0872727273 6.40872727,0.237090909 C6.95812987,0.932779221 11.7755844,7.12 11.7755844,10.1392208 C11.7757922,13.3681039 9.14888312,15.9952208 5.91979221,15.9952208 Z M5.91979221,1.64509091 C4.28924675,3.808 1.31033766,8.16748052 1.31033766,10.1392208 C1.31033766,12.6807273 3.37807792,14.7484675 5.91979221,14.7484675 C8.46150649,14.7484675 10.5292468,12.6809351 10.5292468,10.1392208 C10.529039,8.16748052 7.55012987,3.808 5.91979221,1.64509091 Z" id="Shape"></path>
                <path d="M5.91979221,13.5025455 C5.57548052,13.5025455 5.29641558,13.2234805 5.29641558,12.8791688 C5.29641558,12.5348571 5.57548052,12.2557922 5.91979221,12.2557922 C7.08675325,12.2557922 8.03636364,11.3068052 8.03636364,10.1398442 C8.03636364,9.79553247 8.31542857,9.51646753 8.65974026,9.51646753 C9.00384416,9.51646753 9.28311688,9.79553247 9.28311688,10.1398442 C9.28290909,11.993974 7.77412987,13.5025455 5.91979221,13.5025455 Z" id="Shape"></path>
            </g>
        </g>
    </g>
</svg>