<?xml version="1.0" encoding="UTF-8"?>
<svg width="36px" height="55px" viewBox="0 0 36 55" version="1.1" xmlns="http://www.w3.org/2000/svg" xmlns:xlink="http://www.w3.org/1999/xlink">
    <!-- Generator: Sketch 50.2 (55047) - http://www.bohemiancoding.com/sketch -->
    <title>Group 17 Copy 2</title>
    <desc>Created with Sketch.</desc>
    <defs>
        <filter x="-48.5%" y="-213.6%" width="197.1%" height="527.2%" filterUnits="objectBoundingBox" id="filter-1">
            <feGaussianBlur stdDeviation="3.56026786" in="SourceGraphic"></feGaussianBlur>
        </filter>
    </defs>
    <g id="Page-1" stroke="none" stroke-width="1" fill="none" fill-rule="evenodd">
        <g id="Group-17-Copy-2" transform="translate(3.000000, 0.000000)">
            <ellipse id="Oval-3" fill="#6F829F" opacity="0.9" filter="url(#filter-1)" cx="15" cy="43.5" rx="11" ry="2.5"></ellipse>
            <g id="Group-16">
                <path d="M15,42.3916016 C25,29.6533814 30,20.5228475 30,15 C30,6.71572875 23.2842712,0 15,0 C6.71572875,0 0,6.71572875 0,15 C0,20.5228475 5,29.6533814 15,42.3916016 Z" id="Oval-2" fill="#f1948a"></path>
                <circle id="Oval-2" fill="#e74c3c" cx="15" cy="15" r="12"></circle>
            </g>
            <g id="carbon-dioxide" transform="translate(7.000000, 9.000000)" fill="#FFFFFF" fill-rule="nonzero">
                <path d="M10.774,6.632 C10.7335312,6.5020625 10.6727187,6.38721875 10.5916875,6.28759375 C10.5106562,6.18803125 10.411875,6.10865625 10.295375,6.04953125 C10.178875,5.9905 10.0446562,5.96090625 9.8926875,5.96090625 C9.7339375,5.96090625 9.596375,5.99215625 9.479875,6.054625 C9.363375,6.117125 9.26540625,6.19896875 9.186125,6.30028125 C9.10675,6.40159375 9.047625,6.51728125 9.00884375,6.64725 C8.96996875,6.77728125 8.95059375,6.90984375 8.95059375,7.04484375 C8.95059375,7.18334375 8.97084375,7.3175625 9.011375,7.4475 C9.051875,7.57753125 9.1118125,7.69315625 9.1911875,7.7944375 C9.2705,7.89575 9.36925,7.97678125 9.4875,8.0375625 C9.60565625,8.09834375 9.74075,8.12871875 9.8926875,8.12871875 C10.051375,8.12871875 10.1897813,8.0966875 10.308,8.03246875 C10.4261563,7.968375 10.5240625,7.88478125 10.6017813,7.78175 C10.6794063,7.67878125 10.7376563,7.56228125 10.7765313,7.43228125 C10.8153125,7.3023125 10.8347813,7.16978125 10.8347813,7.03465625 C10.8347813,6.89625 10.8145312,6.762 10.774,6.632 Z" id="Shape"></path>
                <path d="M12.0124062,3.31503125 C11.8079063,2.45965625 11.342625,1.68278125 10.67525,1.09403125 C9.8909375,0.402125 8.88246875,0.02109375 7.8355625,0.02109375 C5.467625,0.02109375 3.54115625,1.9475625 3.54115625,4.3155 C3.54115625,4.35225 3.541625,4.38903125 3.5425625,4.4258125 C3.50621875,4.424625 3.4699375,4.4240625 3.43365625,4.4240625 C1.54034375,4.4240625 0,5.96440625 0,7.85771875 C0,9.75103125 1.54034375,11.2914062 3.4336875,11.2914062 L12.0118125,11.2914062 C14.2109062,11.2914062 16,9.5023125 16,7.30321875 C16,5.10428125 14.2113125,3.31525 12.0124062,3.31503125 Z M7.692,8.38703125 C7.585625,8.49175 7.4631875,8.5795 7.32478125,8.65040625 C7.18628125,8.7213125 7.03940625,8.775375 6.884125,8.8125 C6.72878125,8.849625 6.57684375,8.86821875 6.42828125,8.86821875 C6.16821875,8.86821875 5.929375,8.81503125 5.7115625,8.7086875 C5.49378125,8.6023125 5.306375,8.46134375 5.14934375,8.28575 C4.9923125,8.11021875 4.87075,7.9109375 4.78465625,7.68809375 C4.6985625,7.46521875 4.6555,7.23903125 4.6555,7.009375 C4.6555,6.7933125 4.69603125,6.5780625 4.7770625,6.36359375 C4.85809375,6.14921875 4.97625,5.95759375 5.131625,5.78871875 C5.28690625,5.61990625 5.47603125,5.48315625 5.69890625,5.37846875 C5.92178125,5.27384375 6.17503125,5.2214375 6.45865625,5.2214375 C6.79628125,5.2214375 7.08925,5.29409375 7.3374375,5.43925 C7.585625,5.58446875 7.7705,5.77353125 7.89203125,6.00653125 L7.25384375,6.45225 C7.2133125,6.35775 7.1618125,6.27925 7.099375,6.21671875 C7.03684375,6.15428125 6.96846875,6.103625 6.89425,6.06478125 C6.8199375,6.026 6.74396875,5.9989375 6.66634375,5.98375 C6.588625,5.9685625 6.512625,5.96096875 6.43840625,5.96096875 C6.27965625,5.96096875 6.14125,5.99309375 6.02309375,6.05721875 C5.904875,6.12140625 5.80696875,6.20409375 5.72934375,6.30540625 C5.651625,6.40671875 5.59425,6.52153125 5.557125,6.6498125 C5.51990625,6.77815625 5.50140625,6.908125 5.50140625,7.0398125 C5.50140625,7.181625 5.52334375,7.31840625 5.56725,7.45009375 C5.61109375,7.58178125 5.67440625,7.69828125 5.7571875,7.79959375 C5.83990625,7.90090625 5.93953125,7.98115625 6.05603125,8.0401875 C6.17253125,8.0993125 6.30334375,8.1288125 6.4485625,8.1288125 C6.5228125,8.1288125 6.59965625,8.1195625 6.67903125,8.10096875 C6.75834375,8.0824375 6.8343125,8.05371875 6.90696875,8.014875 C6.97953125,7.97609375 7.04625,7.9254375 7.10703125,7.86290625 C7.1678125,7.80046875 7.21671875,7.723625 7.25390625,7.6324375 L7.932625,8.0325625 C7.8785,8.1641875 7.79834375,8.28240625 7.692,8.38703125 Z M11.5464375,7.73365625 C11.4569375,7.9531875 11.3328438,8.14646875 11.1741562,8.31359375 C11.0154062,8.48075 10.8263437,8.61496875 10.606875,8.71625 C10.3873437,8.8175625 10.147625,8.86821875 9.887625,8.86821875 C9.62084375,8.86821875 9.37771875,8.81590625 9.15828125,8.7111875 C8.93875,8.6065625 8.75134375,8.4689375 8.5960625,8.298375 C8.4406875,8.12790625 8.32003125,7.93290625 8.23390625,7.713375 C8.1478125,7.49390625 8.10475,7.26765625 8.10475,7.03465625 C8.10475,6.79834375 8.14946875,6.5704375 8.23896875,6.350875 C8.32840625,6.13140625 8.45334375,5.9380625 8.61378125,5.7709375 C8.774125,5.60378125 8.9640625,5.4704375 9.18359375,5.3708125 C9.40303125,5.27125 9.64275,5.221375 9.9028125,5.221375 C10.1695312,5.221375 10.4126562,5.27378125 10.6321875,5.37840625 C10.851625,5.48309375 11.0390625,5.62153125 11.1944062,5.79375 C11.3496875,5.96596875 11.4695937,6.1618125 11.5540312,6.38128125 C11.6384062,6.6008125 11.6806562,6.8236875 11.6806562,7.049875 C11.6806562,7.28625 11.635875,7.5141875 11.5464375,7.73365625 Z M11.6873125,9.49578125 C11.6873125,9.42134375 11.6928438,9.3548125 11.7039375,9.29621875 C11.715,9.237625 11.734,9.18415625 11.7609375,9.13584375 C11.7878438,9.0875625 11.8242813,9.0428125 11.87025,9.001625 C11.9161875,8.96046875 11.9739688,8.9200625 12.0436875,8.88046875 C12.118125,8.8393125 12.1803125,8.80525 12.2301875,8.77828125 C12.2800625,8.751375 12.3196563,8.727625 12.3489688,8.707 C12.3782813,8.6864375 12.3992188,8.6678125 12.4119375,8.65115625 C12.4245937,8.63453125 12.4309375,8.61515625 12.4309375,8.5929375 C12.4309375,8.548625 12.4150938,8.51296875 12.3834063,8.48603125 C12.3516875,8.459125 12.3065625,8.445625 12.2479688,8.445625 C12.1814688,8.445625 12.1235937,8.46190625 12.0745312,8.49434375 C12.0254062,8.52684375 11.9779063,8.5691875 11.9319687,8.62146875 L11.689625,8.34109375 C11.7149687,8.31259375 11.7490312,8.28490625 11.7918125,8.2579375 C11.8345625,8.23103125 11.882875,8.20684375 11.93675,8.18546875 C11.9905937,8.1640625 12.0495937,8.14709375 12.11375,8.134375 C12.1779062,8.12171875 12.2447812,8.115375 12.3145,8.115375 C12.4855625,8.115375 12.616625,8.15259375 12.7077187,8.22703125 C12.7987812,8.3015 12.8443437,8.40209375 12.8443437,8.52878125 C12.8443437,8.5810625 12.8360312,8.62778125 12.8194062,8.66896875 C12.8027812,8.71015625 12.781,8.747 12.7540625,8.7794375 C12.727125,8.8119375 12.6970312,8.8404375 12.6637812,8.86496875 C12.6305312,8.88953125 12.5964375,8.912125 12.561625,8.9326875 C12.537875,8.94696875 12.5093437,8.96359375 12.4760937,8.98259375 C12.4428125,9.00159375 12.4099375,9.02103125 12.3775,9.0408125 C12.3450312,9.060625 12.3149062,9.0804375 12.2872187,9.10021875 C12.2594687,9.12003125 12.2385,9.137875 12.22425,9.1536875 L12.8705,9.1536875 L12.8705,9.49578125 L11.6873125,9.49578125 Z" id="Shape"></path>
            </g>
        </g>
    </g>
</svg>
