<?xml version="1.0" encoding="UTF-8"?>
<svg width="14px" height="14px" viewBox="0 0 14 14" version="1.1" xmlns="http://www.w3.org/2000/svg" xmlns:xlink="http://www.w3.org/1999/xlink">
    <!-- Generator: Sketch 50.2 (55047) - http://www.bohemiancoding.com/sketch -->
    <title>Artboard</title>
    <desc>Created with Sketch.</desc>
    <defs></defs>
    <g id="Artboard" stroke="none" stroke-width="1" fill="none" fill-rule="evenodd">
        <g id="Group-5" fill="#9EAFC8" fill-rule="nonzero">
            <path d="M6.3,12.6 C2.82060608,12.6 0,9.77939392 0,6.3 C0,2.82060608 2.82060608,0 6.3,0 C9.77939392,0 12.6,2.82060608 12.6,6.3 C12.6,9.77939392 9.77939392,12.6 6.3,12.6 Z M6.3,11.2 C9.00619527,11.2 11.2,9.00619527 11.2,6.3 C11.2,3.59380473 9.00619527,1.4 6.3,1.4 C3.59380473,1.4 1.4,3.59380473 1.4,6.3 C1.4,9.00619527 3.59380473,11.2 6.3,11.2 Z" id="Oval"></path>
            <path d="M13.7949747,12.8050253 C14.0683418,13.0783923 14.0683418,13.5216077 13.7949747,13.7949747 C13.5216077,14.0683418 13.0783923,14.0683418 12.8050253,13.7949747 L9.76002525,10.7499747 C9.48665825,10.4766077 9.48665825,10.0333923 9.76002525,9.76002525 C10.0333923,9.48665825 10.4766077,9.48665825 10.7499747,9.76002525 L13.7949747,12.8050253 Z" id="Shape"></path>
        </g>
    </g>
</svg>