<?xml version="1.0" encoding="UTF-8"?>
<svg width="18px" height="46px" viewBox="0 0 18 46" version="1.1" xmlns="http://www.w3.org/2000/svg" xmlns:xlink="http://www.w3.org/1999/xlink">
    <!-- Generator: Sketch 50.2 (55047) - http://www.bohemiancoding.com/sketch -->
    <title>Group</title>
    <desc>Created with Sketch.</desc>
    <defs></defs>
    <g id="Page-1" stroke="none" stroke-width="1" fill="none" fill-rule="evenodd">
        <g id="Group" fill-rule="nonzero">
            <g id="sell" fill="#9EAFC8">
                <path d="M0,9 C0,8.44771525 0.44771525,8 1,8 C1.55228475,8 2,8.44771525 2,9 L2,15 C2,15.5522847 2.44771525,16 3,16 L15,16 C15.5522847,16 16,15.5522847 16,15 L16,9 C16,8.44771525 16.4477153,8 17,8 C17.5522847,8 18,8.44771525 18,9 L18,15 C18,16.6568542 16.6568542,18 15,18 L3,18 C1.34314575,18 0,16.6568542 0,15 L0,9 Z" id="Shape"></path>
                <path d="M9,2.41421356 L5.70710678,5.70710678 C5.31658249,6.09763107 4.68341751,6.09763107 4.29289322,5.70710678 C3.90236893,5.31658249 3.90236893,4.68341751 4.29289322,4.29289322 L8.29289322,0.292893219 C8.68341751,-0.0976310729 9.31658249,-0.0976310729 9.70710678,0.292893219 L13.7071068,4.29289322 C14.0976311,4.68341751 14.0976311,5.31658249 13.7071068,5.70710678 C13.3165825,6.09763107 12.6834175,6.09763107 12.2928932,5.70710678 L9,2.41421356 Z" id="Shape"></path>
                <path d="M8,1 C8,0.44771525 8.44771525,0 9,0 C9.55228475,0 10,0.44771525 10,1 L10,12 C10,12.5522847 9.55228475,13 9,13 C8.44771525,13 8,12.5522847 8,12 L8,1 Z" id="Shape"></path>
            </g>
            <g id="sell-active" transform="translate(0.000000, 28.000000)" fill="#007DFF">
                <path d="M0,9 C0,8.44771525 0.44771525,8 1,8 C1.55228475,8 2,8.44771525 2,9 L2,15 C2,15.5522847 2.44771525,16 3,16 L15,16 C15.5522847,16 16,15.5522847 16,15 L16,9 C16,8.44771525 16.4477153,8 17,8 C17.5522847,8 18,8.44771525 18,9 L18,15 C18,16.6568542 16.6568542,18 15,18 L3,18 C1.34314575,18 0,16.6568542 0,15 L0,9 Z" id="Shape"></path>
                <path d="M9,2.41421356 L5.70710678,5.70710678 C5.31658249,6.09763107 4.68341751,6.09763107 4.29289322,5.70710678 C3.90236893,5.31658249 3.90236893,4.68341751 4.29289322,4.29289322 L8.29289322,0.292893219 C8.68341751,-0.0976310729 9.31658249,-0.0976310729 9.70710678,0.292893219 L13.7071068,4.29289322 C14.0976311,4.68341751 14.0976311,5.31658249 13.7071068,5.70710678 C13.3165825,6.09763107 12.6834175,6.09763107 12.2928932,5.70710678 L9,2.41421356 Z" id="Shape"></path>
                <path d="M8,1 C8,0.44771525 8.44771525,0 9,0 C9.55228475,0 10,0.44771525 10,1 L10,12 C10,12.5522847 9.55228475,13 9,13 C8.44771525,13 8,12.5522847 8,12 L8,1 Z" id="Shape"></path>
            </g>
        </g>
    </g>
</svg>