<?xml version="1.0" encoding="UTF-8"?>
<svg width="14px" height="14px" viewBox="0 0 14 14" version="1.1" xmlns="http://www.w3.org/2000/svg" xmlns:xlink="http://www.w3.org/1999/xlink">
    <!-- Generator: Sketch 50.2 (55047) - http://www.bohemiancoding.com/sketch -->
    <title>Group 3</title>
    <desc>Created with Sketch.</desc>
    <defs></defs>
    <g id="Page-1" stroke="none" stroke-width="1" fill="none" fill-rule="evenodd">
        <g id="Group-3" fill="#007DFF" fill-rule="nonzero">
            <path d="M5.32954545,13.4431818 C4.53877411,13.4431818 3.89772727,12.802135 3.89772727,12.0113636 C3.89772727,11.2205923 4.53877411,10.5795455 5.32954545,10.5795455 C6.1203168,10.5795455 6.76136364,11.2205923 6.76136364,12.0113636 C6.76136364,12.802135 6.1203168,13.4431818 5.32954545,13.4431818 Z M5.32954545,11.6931818 C5.15381849,11.6931818 5.01136364,11.8356367 5.01136364,12.0113636 C5.01136364,12.1870906 5.15381849,12.3295455 5.32954545,12.3295455 C5.50527242,12.3295455 5.64772727,12.1870906 5.64772727,12.0113636 C5.64772727,11.8356367 5.50527242,11.6931818 5.32954545,11.6931818 Z" id="Oval"></path>
            <path d="M11.4545455,13.4431818 C10.6637741,13.4431818 10.0227273,12.802135 10.0227273,12.0113636 C10.0227273,11.2205923 10.6637741,10.5795455 11.4545455,10.5795455 C12.2453168,10.5795455 12.8863636,11.2205923 12.8863636,12.0113636 C12.8863636,12.802135 12.2453168,13.4431818 11.4545455,13.4431818 Z M11.4545455,11.6931818 C11.2788185,11.6931818 11.1363636,11.8356367 11.1363636,12.0113636 C11.1363636,12.1870906 11.2788185,12.3295455 11.4545455,12.3295455 C11.6302724,12.3295455 11.7727273,12.1870906 11.7727273,12.0113636 C11.7727273,11.8356367 11.6302724,11.6931818 11.4545455,11.6931818 Z" id="Oval"></path>
            <path d="M2.38504937,1.75 L0.875,1.75 C0.391750844,1.75 0,1.35824916 0,0.875 C0,0.391750844 0.391750844,0 0.875,0 L3.10227273,0 C3.51932138,0 3.87840746,0.294337062 3.96025616,0.70327516 L4.37672985,2.78409091 L13.125,2.78409091 C13.6739721,2.78409091 14.0873478,3.28374838 13.9845104,3.8230023 L13.0923257,8.50125983 C12.9046611,9.44609233 12.0668019,10.120569 11.1204545,10.1022727 L5.72494706,10.1021121 C4.7618345,10.120569 3.92397529,9.44609233 3.73656202,8.50252029 L2.80790535,3.86270207 C2.8030339,3.84226179 2.79887963,3.82154334 2.79547061,3.80057478 L2.38504937,1.75 Z M4.72699101,4.53409091 L5.45278021,8.16033108 C5.47529996,8.27371098 5.57584307,8.35464818 5.70818182,8.35227273 L11.1372198,8.35243336 C11.2527933,8.35464818 11.3533364,8.27371098 11.3745806,8.16688406 L12.0673659,4.53409091 L4.72699101,4.53409091 Z" id="Shape"></path>
        </g>
    </g>
</svg>