<?xml version="1.0" encoding="UTF-8"?>
<svg width="15px" height="18px" viewBox="0 0 15 18" version="1.1" xmlns="http://www.w3.org/2000/svg" xmlns:xlink="http://www.w3.org/1999/xlink">
    <!-- Generator: Sketch 50.2 (55047) - http://www.bohemiancoding.com/sketch -->
    <title>Group 3</title>
    <desc>Created with Sketch.</desc>
    <defs></defs>
    <g id="Symbols" stroke="none" stroke-width="1" fill="none" fill-rule="evenodd">
        <g id="Smart/Active/Desktop" transform="translate(-36.000000, 0.000000)" fill="#007DFF" fill-rule="nonzero">
            <g id="Group-3" transform="translate(36.000000, 0.000000)">
                <path d="M9,0 C9.21699531,0 9.42510306,0.0862010512 9.57854191,0.239639906 L14.4876328,5.14873082 C14.6410717,5.30216967 14.7272727,5.51027742 14.7272727,5.72727273 L14.7272727,15.5454545 C14.7272727,16.9010626 13.6283353,18 12.2727273,18 L2.45454545,18 C1.09893743,18 0,16.9010626 0,15.5454545 L0,2.45454545 C0,1.09893743 1.09893743,0 2.45454545,0 L9,0 Z M8.66109799,1.63636364 L2.45454545,1.63636364 C2.00267611,1.63636364 1.63636364,2.00267611 1.63636364,2.45454545 L1.63636364,15.5454545 C1.63636364,15.9973239 2.00267611,16.3636364 2.45454545,16.3636364 L12.2727273,16.3636364 C12.7245966,16.3636364 13.0909091,15.9973239 13.0909091,15.5454545 L13.0909091,6.06617473 L8.66109799,1.63636364 Z" id="Shape"></path>
                <path d="M9.81818182,4.90909091 L13.9090909,4.90909091 C14.3609602,4.90909091 14.7272727,5.27540339 14.7272727,5.72727273 C14.7272727,6.17914207 14.3609602,6.54545455 13.9090909,6.54545455 L9,6.54545455 C8.54813066,6.54545455 8.18181818,6.17914207 8.18181818,5.72727273 L8.18181818,0.818181818 C8.18181818,0.366312477 8.54813066,0 9,0 C9.45186934,0 9.81818182,0.366312477 9.81818182,0.818181818 L9.81818182,4.90909091 Z" id="Shape"></path>
                <path d="M10.6363636,9 C11.088233,9 11.4545455,9.36631248 11.4545455,9.81818182 C11.4545455,10.2700512 11.088233,10.6363636 10.6363636,10.6363636 L4.09090909,10.6363636 C3.63903975,10.6363636 3.27272727,10.2700512 3.27272727,9.81818182 C3.27272727,9.36631248 3.63903975,9 4.09090909,9 L10.6363636,9 Z" id="Shape"></path>
                <path d="M10.6363636,12.2727273 C11.088233,12.2727273 11.4545455,12.6390398 11.4545455,13.0909091 C11.4545455,13.5427784 11.088233,13.9090909 10.6363636,13.9090909 L4.09090909,13.9090909 C3.63903975,13.9090909 3.27272727,13.5427784 3.27272727,13.0909091 C3.27272727,12.6390398 3.63903975,12.2727273 4.09090909,12.2727273 L10.6363636,12.2727273 Z" id="Shape"></path>
                <path d="M5.72727273,5.72727273 C6.17914207,5.72727273 6.54545455,6.0935852 6.54545455,6.54545455 C6.54545455,6.99732389 6.17914207,7.36363636 5.72727273,7.36363636 L4.09090909,7.36363636 C3.63903975,7.36363636 3.27272727,6.99732389 3.27272727,6.54545455 C3.27272727,6.0935852 3.63903975,5.72727273 4.09090909,5.72727273 L5.72727273,5.72727273 Z" id="Shape"></path>
            </g>
        </g>
    </g>
</svg>