<?xml version="1.0" encoding="UTF-8"?>
<svg width="12px" height="14px" viewBox="0 0 12 14" version="1.1" xmlns="http://www.w3.org/2000/svg" xmlns:xlink="http://www.w3.org/1999/xlink">
    <!-- Generator: Sketch 50.2 (55047) - http://www.bohemiancoding.com/sketch -->
    <title>Artboard</title>
    <desc>Created with Sketch.</desc>
    <defs></defs>
    <g id="Artboard" stroke="none" stroke-width="1" fill="none" fill-rule="evenodd">
        <g id="Group-4" fill="#007DFF" fill-rule="nonzero">
            <path d="M1.8,7.30434783 C1.46862915,7.30434783 1.2,7.57687015 1.2,7.91304348 L1.2,12.173913 C1.2,12.5100864 1.46862915,12.7826087 1.8,12.7826087 L10.2,12.7826087 C10.5313708,12.7826087 10.8,12.5100864 10.8,12.173913 L10.8,7.91304348 C10.8,7.57687015 10.5313708,7.30434783 10.2,7.30434783 L1.8,7.30434783 Z M1.8,6.08695652 L10.2,6.08695652 C11.1941125,6.08695652 12,6.9045235 12,7.91304348 L12,12.173913 C12,13.182433 11.1941125,14 10.2,14 L1.8,14 C0.80588745,14 1.33226763e-16,13.182433 0,12.173913 L0,7.91304348 C-1.33226763e-16,6.9045235 0.80588745,6.08695652 1.8,6.08695652 Z" id="Rectangle-path"></path>
            <path d="M3.59999846,6.69565256 C3.59999825,7.03182589 3.33136892,7.30434804 2.99999807,7.30434783 C2.66862722,7.30434761 2.39999825,7.03182511 2.39999846,6.69565178 L2.4000003,4.2614813 C2.39814154,2.38516562 3.79805477,0.812694617 5.63820314,0.624127224 C7.47835152,0.435559831 9.15995664,1.69225528 9.5280003,3.53104652 C9.59394145,3.86049655 9.3841406,4.18179915 9.059397,4.24869596 C8.7346534,4.31559277 8.41794084,4.10275133 8.3519997,3.7733013 C8.10663726,2.54744048 6.98556717,1.70964351 5.75880159,1.83535511 C4.53203601,1.9610667 3.59876052,3.00938071 3.6,4.26086996 L3.59999846,6.69565256 Z" id="Shape"></path>
        </g>
    </g>
</svg>