<?xml version="1.0" encoding="UTF-8"?>
<svg width="12px" height="13px" viewBox="0 0 12 13" version="1.1" xmlns="http://www.w3.org/2000/svg" xmlns:xlink="http://www.w3.org/1999/xlink">
    <!-- Generator: Sketch 50.2 (55047) - http://www.bohemiancoding.com/sketch -->
    <title>Artboard</title>
    <desc>Created with Sketch.</desc>
    <defs></defs>
    <g id="Artboard" stroke="none" stroke-width="1" fill="none" fill-rule="evenodd">
        <g id="Group-9" transform="translate(0.000000, 1.000000)" fill="#007DFF" fill-rule="nonzero">
            <path d="M6,12 C2.6862915,12 0,9.3137085 0,6 C0,2.6862915 2.6862915,0 6,0 C9.3137085,0 12,2.6862915 12,6 C12,9.3137085 9.3137085,12 6,12 Z M6,10.9090909 C8.71121604,10.9090909 10.9090909,8.71121604 10.9090909,6 C10.9090909,3.28878396 8.71121604,1.09090909 6,1.09090909 C3.28878396,1.09090909 1.09090909,3.28878396 1.09090909,6 C1.09090909,8.71121604 3.28878396,10.9090909 6,10.9090909 Z" id="Oval"></path>
            <path d="M6.54545455,5.66289055 L8.42575287,6.60303971 C8.69519569,6.73776112 8.80440897,7.06540096 8.66968756,7.33484378 C8.53496615,7.6042866 8.20732631,7.71349988 7.93788349,7.57877847 L5.75606531,6.48786938 C5.57127402,6.39547373 5.45454545,6.20660294 5.45454545,6 L5.45454545,2.72727273 C5.45454545,2.4260265 5.69875377,2.18181818 6,2.18181818 C6.30124623,2.18181818 6.54545455,2.4260265 6.54545455,2.72727273 L6.54545455,5.66289055 Z" id="Shape"></path>
        </g>
    </g>
</svg>