<?xml version="1.0" encoding="UTF-8"?>
<svg width="12px" height="14px" viewBox="0 0 12 14" version="1.1" xmlns="http://www.w3.org/2000/svg" xmlns:xlink="http://www.w3.org/1999/xlink">
    <!-- Generator: Sketch 50.2 (55047) - http://www.bohemiancoding.com/sketch -->
    <title>Artboard</title>
    <desc>Created with Sketch.</desc>
    <defs></defs>
    <g id="Artboard" stroke="none" stroke-width="1" fill="none" fill-rule="evenodd">
        <g id="Group-8" fill="#007DFF" fill-rule="nonzero">
            <path d="M1.8,7 C1.46862915,7 1.2,7.2849097 1.2,7.63636364 L1.2,12.0909091 C1.2,12.442363 1.46862915,12.7272727 1.8,12.7272727 L10.2,12.7272727 C10.5313708,12.7272727 10.8,12.442363 10.8,12.0909091 L10.8,7.63636364 C10.8,7.2849097 10.5313708,7 10.2,7 L1.8,7 Z M1.8,5.72727273 L10.2,5.72727273 C11.1941125,5.72727273 12,6.58200184 12,7.63636364 L12,12.0909091 C12,13.1452709 11.1941125,14 10.2,14 L1.8,14 C0.80588745,14 1.33226763e-16,13.1452709 0,12.0909091 L0,7.63636364 C-1.33226763e-16,6.58200184 0.80588745,5.72727273 1.8,5.72727273 Z" id="Rectangle-path"></path>
            <path d="M3.6,6.36363636 C3.6,6.7150903 3.33137085,7 3,7 C2.66862915,7 2.4,6.7150903 2.4,6.36363636 L2.4,3.81818182 C2.4,1.70945823 4.0117749,3.53252781e-16 6,0 C7.9882251,-7.06505561e-16 9.6,1.70945823 9.6,3.81818182 L9.6,6.36363636 C9.6,6.7150903 9.33137085,7 9,7 C8.66862915,7 8.4,6.7150903 8.4,6.36363636 L8.4,3.81818182 C8.4,2.41236609 7.3254834,1.27272727 6,1.27272727 C4.6745166,1.27272727 3.6,2.41236609 3.6,3.81818182 L3.6,6.36363636 Z" id="Shape"></path>
        </g>
    </g>
</svg>