<?xml version="1.0" encoding="UTF-8"?>
<svg width="18px" height="40px" viewBox="0 0 18 40" version="1.1" xmlns="http://www.w3.org/2000/svg" xmlns:xlink="http://www.w3.org/1999/xlink">
    <!-- Generator: Sketch 50.2 (55047) - http://www.bohemiancoding.com/sketch -->
    <title>Artboard</title>
    <desc>Created with Sketch.</desc>
    <defs></defs>
    <g id="Artboard" stroke="none" stroke-width="1" fill="none" fill-rule="evenodd">
        <g id="wallet" transform="translate(0.000000, 2.000000)" fill-rule="nonzero">
            <g fill="#9EAFC8">
                <path d="M3,2 C2.44771525,2 2,2.44771525 2,3 L2,11 C2,11.5522847 2.44771525,12 3,12 L15,12 C15.5522847,12 16,11.5522847 16,11 L16,3 C16,2.44771525 15.5522847,2 15,2 L3,2 Z M3,0 L15,0 C16.6568542,-2.22044605e-16 18,1.34314575 18,3 L18,11 C18,12.6568542 16.6568542,14 15,14 L3,14 C1.34314575,14 2.22044605e-16,12.6568542 0,11 L0,3 C-2.22044605e-16,1.34314575 1.34314575,3.33066907e-16 3,0 Z" id="Rectangle-path"></path>
                <path d="M11,6 L11,8 L16,8 L16,6 L11,6 Z M11,4 L16,4 C17.1045695,4 18,4.8954305 18,6 L18,8 C18,9.1045695 17.1045695,10 16,10 L11,10 C9.8954305,10 9,9.1045695 9,8 L9,6 C9,4.8954305 9.8954305,4 11,4 Z" id="Rectangle-6"></path>
            </g>
            <g id="wallet-active" transform="translate(0.000000, 24.000000)" fill="#007DFF">
                <path d="M3,2 C2.44771525,2 2,2.44771525 2,3 L2,11 C2,11.5522847 2.44771525,12 3,12 L15,12 C15.5522847,12 16,11.5522847 16,11 L16,3 C16,2.44771525 15.5522847,2 15,2 L3,2 Z M3,0 L15,0 C16.6568542,-2.22044605e-16 18,1.34314575 18,3 L18,11 C18,12.6568542 16.6568542,14 15,14 L3,14 C1.34314575,14 2.22044605e-16,12.6568542 0,11 L0,3 C-2.22044605e-16,1.34314575 1.34314575,3.33066907e-16 3,0 Z" id="Rectangle-path"></path>
                <path d="M11,6 L11,8 L16,8 L16,6 L11,6 Z M11,4 L16,4 C17.1045695,4 18,4.8954305 18,6 L18,8 C18,9.1045695 17.1045695,10 16,10 L11,10 C9.8954305,10 9,9.1045695 9,8 L9,6 C9,4.8954305 9.8954305,4 11,4 Z" id="Rectangle-6"></path>
            </g>
        </g>
    </g>
</svg>
