<?xml version="1.0" encoding="UTF-8"?>
<svg width="50px" height="44px" viewBox="0 0 50 44" version="1.1" xmlns="http://www.w3.org/2000/svg" xmlns:xlink="http://www.w3.org/1999/xlink">
    <!-- Generator: Sketch 50.2 (55047) - http://www.bohemiancoding.com/sketch -->
    <title>line-chart</title>
    <desc>Created with Sketch.</desc>
    <defs></defs>
    <g id="Page-1" stroke="none" stroke-width="1" fill="none" fill-rule="evenodd">
        <g id="line-chart" fill-rule="nonzero">
            <g id="Group" transform="translate(0.862069, 7.758621)" fill="#56F4F8">
                <circle id="Oval" cx="3.44827586" cy="24.137931" r="3.44827586"></circle>
                <circle id="Oval" cx="44.8275862" cy="3.44827586" r="3.44827586"></circle>
                <circle id="Oval" cx="17.2413793" cy="10.3448276" r="3.44827586"></circle>
                <circle id="Oval" cx="27.5862069" cy="20.6896552" r="3.44827586"></circle>
            </g>
            <g id="Group" fill="#353E4C">
                <path d="M46.4655172,3.53448276 C46.1206897,1.55172414 44.3103448,0 42.2413793,0 L7.75862069,0 C5.34482759,0 3.44827586,1.89655172 3.44827586,4.31034483 L3.44827586,24.2241379 C1.46551724,24.6551724 0,26.3793103 0,28.4482759 C0,30.5172414 1.46551724,32.2413793 3.44827586,32.6724138 L3.44827586,38.7931034 C3.44827586,41.2068966 5.34482759,43.1034483 7.75862069,43.1034483 L42.2413793,43.1034483 C44.6551724,43.1034483 46.5517241,41.2068966 46.5517241,38.7931034 L46.5517241,11.9827586 C48.5344828,11.5517241 50,9.82758621 50,7.75862069 C50,5.68965517 48.4482759,3.87931034 46.4655172,3.53448276 Z M7.75862069,1.72413793 L42.2413793,1.72413793 C43.4482759,1.72413793 44.3965517,2.5 44.7413793,3.53448276 C42.8448276,4.05172414 41.3793103,5.68965517 41.3793103,7.75862069 C41.3793103,8.62068966 41.637931,9.48275862 42.0689655,10.1724138 L30.862069,21.3793103 C30.1724138,20.9482759 29.3103448,20.6896552 28.4482759,20.6896552 C27.5862069,20.6896552 26.7241379,20.9482759 26.0344828,21.3793103 L21.637931,16.9827586 C22.1551724,16.3793103 22.4137931,15.5172414 22.4137931,14.6551724 C22.4137931,12.2413793 20.5172414,10.3448276 18.1034483,10.3448276 C15.6896552,10.3448276 13.7931034,12.2413793 13.7931034,14.6551724 C13.7931034,15.5172414 14.0517241,16.3793103 14.4827586,17.0689655 L6.63793103,24.9137931 C6.20689655,24.6551724 5.68965517,24.3965517 5.0862069,24.3103448 L5.0862069,4.31034483 C5.17241379,2.84482759 6.29310345,1.72413793 7.75862069,1.72413793 Z M28.4482759,22.4137931 C29.9137931,22.4137931 31.0344828,23.5344828 31.0344828,25 C31.0344828,26.4655172 29.9137931,27.5862069 28.4482759,27.5862069 C26.9827586,27.5862069 25.862069,26.4655172 25.862069,25 C25.862069,23.5344828 26.9827586,22.4137931 28.4482759,22.4137931 Z M15.5172414,14.6551724 C15.5172414,13.1896552 16.637931,12.0689655 18.1034483,12.0689655 C19.5689655,12.0689655 20.6896552,13.1896552 20.6896552,14.6551724 C20.6896552,16.1206897 19.5689655,17.2413793 18.1034483,17.2413793 C16.637931,17.2413793 15.5172414,16.1206897 15.5172414,14.6551724 Z M1.72413793,28.4482759 C1.72413793,26.9827586 2.84482759,25.862069 4.31034483,25.862069 C5.77586207,25.862069 6.89655172,26.9827586 6.89655172,28.4482759 C6.89655172,29.9137931 5.77586207,31.0344828 4.31034483,31.0344828 C2.84482759,31.0344828 1.72413793,29.9137931 1.72413793,28.4482759 Z M43.1034483,41.2068966 L43.1034483,18.1034483 C43.1034483,17.5862069 42.7586207,17.2413793 42.2413793,17.2413793 C41.7241379,17.2413793 41.3793103,17.5862069 41.3793103,18.1034483 L41.3793103,41.3793103 L36.2068966,41.3793103 L36.2068966,25 C36.2068966,24.4827586 35.862069,24.137931 35.3448276,24.137931 C34.8275862,24.137931 34.4827586,24.4827586 34.4827586,25 L34.4827586,41.3793103 L32.7586207,41.3793103 L32.7586207,31.8965517 C32.7586207,31.3793103 32.4137931,31.0344828 31.8965517,31.0344828 C31.3793103,31.0344828 31.0344828,31.3793103 31.0344828,31.8965517 L31.0344828,41.3793103 L29.3103448,41.3793103 L29.3103448,31.8965517 C29.3103448,31.3793103 28.9655172,31.0344828 28.4482759,31.0344828 C27.9310345,31.0344828 27.5862069,31.3793103 27.5862069,31.8965517 L27.5862069,41.3793103 L22.4137931,41.3793103 L22.4137931,28.4482759 C22.4137931,27.9310345 22.0689655,27.5862069 21.5517241,27.5862069 C21.0344828,27.5862069 20.6896552,27.9310345 20.6896552,28.4482759 L20.6896552,41.3793103 L18.9655172,41.3793103 L18.9655172,21.5517241 C18.9655172,21.0344828 18.6206897,20.6896552 18.1034483,20.6896552 C17.5862069,20.6896552 17.2413793,21.0344828 17.2413793,21.5517241 L17.2413793,41.3793103 L12.0689655,41.3793103 L12.0689655,28.4482759 C12.0689655,27.9310345 11.7241379,27.5862069 11.2068966,27.5862069 C10.6896552,27.5862069 10.3448276,27.9310345 10.3448276,28.4482759 L10.3448276,41.3793103 L7.75862069,41.3793103 C6.29310345,41.3793103 5.17241379,40.2586207 5.17241379,38.7931034 L5.17241379,32.6724138 C7.15517241,32.2413793 8.62068966,30.5172414 8.62068966,28.4482759 C8.62068966,27.5862069 8.36206897,26.7241379 7.93103448,26.0344828 L15.7758621,18.1896552 C16.3793103,18.7068966 17.2413793,18.9655172 18.1034483,18.9655172 C18.9655172,18.9655172 19.8275862,18.7068966 20.5172414,18.2758621 L24.9137931,22.6724138 C24.3965517,23.2758621 24.137931,24.137931 24.137931,25 C24.137931,27.4137931 26.0344828,29.3103448 28.4482759,29.3103448 C30.862069,29.3103448 32.7586207,27.4137931 32.7586207,25 C32.7586207,24.137931 32.5,23.2758621 32.0689655,22.5862069 L43.362069,11.2931034 C43.7931034,11.5517241 44.3103448,11.8103448 44.9137931,11.8965517 L44.9137931,38.7931034 C44.8275862,39.9137931 44.137931,40.862069 43.1034483,41.2068966 Z M45.6896552,10.3448276 C44.2241379,10.3448276 43.1034483,9.22413793 43.1034483,7.75862069 C43.1034483,6.29310345 44.2241379,5.17241379 45.6896552,5.17241379 C47.1551724,5.17241379 48.2758621,6.29310345 48.2758621,7.75862069 C48.2758621,9.22413793 47.1551724,10.3448276 45.6896552,10.3448276 Z" id="Shape"></path>
                <path d="M14.6551724,31.0344828 C14.137931,31.0344828 13.7931034,31.3793103 13.7931034,31.8965517 L13.7931034,38.7931034 C13.7931034,39.3103448 14.137931,39.6551724 14.6551724,39.6551724 C15.1724138,39.6551724 15.5172414,39.3103448 15.5172414,38.7931034 L15.5172414,31.8965517 C15.5172414,31.3793103 15.1724138,31.0344828 14.6551724,31.0344828 Z" id="Shape"></path>
                <path d="M14.6551724,24.137931 C14.137931,24.137931 13.7931034,24.4827586 13.7931034,25 L13.7931034,28.4482759 C13.7931034,28.9655172 14.137931,29.3103448 14.6551724,29.3103448 C15.1724138,29.3103448 15.5172414,28.9655172 15.5172414,28.4482759 L15.5172414,25 C15.5172414,24.4827586 15.1724138,24.137931 14.6551724,24.137931 Z" id="Shape"></path>
                <path d="M25,31.0344828 C24.4827586,31.0344828 24.137931,31.3793103 24.137931,31.8965517 L24.137931,38.7931034 C24.137931,39.3103448 24.4827586,39.6551724 25,39.6551724 C25.5172414,39.6551724 25.862069,39.3103448 25.862069,38.7931034 L25.862069,31.8965517 C25.862069,31.3793103 25.5172414,31.0344828 25,31.0344828 Z" id="Shape"></path>
                <path d="M38.7931034,20.6896552 C38.2758621,20.6896552 37.9310345,21.0344828 37.9310345,21.5517241 L37.9310345,38.7931034 C37.9310345,39.3103448 38.2758621,39.6551724 38.7931034,39.6551724 C39.3103448,39.6551724 39.6551724,39.3103448 39.6551724,38.7931034 L39.6551724,21.5517241 C39.6551724,21.0344828 39.3103448,20.6896552 38.7931034,20.6896552 Z" id="Shape"></path>
                <path d="M7.75862069,34.4827586 C7.24137931,34.4827586 6.89655172,34.8275862 6.89655172,35.3448276 L6.89655172,38.7931034 C6.89655172,39.3103448 7.24137931,39.6551724 7.75862069,39.6551724 C8.27586207,39.6551724 8.62068966,39.3103448 8.62068966,38.7931034 L8.62068966,35.3448276 C8.62068966,34.8275862 8.27586207,34.4827586 7.75862069,34.4827586 Z" id="Shape"></path>
            </g>
        </g>
    </g>
</svg>