<?xml version="1.0" encoding="UTF-8"?>
<svg width="37px" height="50px" viewBox="0 0 37 50" version="1.1" xmlns="http://www.w3.org/2000/svg" xmlns:xlink="http://www.w3.org/1999/xlink">
    <!-- Generator: Sketch 50.2 (55047) - http://www.bohemiancoding.com/sketch -->
    <title>invoice</title>
    <desc>Created with Sketch.</desc>
    <defs></defs>
    <g id="Page-1" stroke="none" stroke-width="1" fill="none" fill-rule="evenodd">
        <g id="invoice" fill-rule="nonzero">
            <circle id="Oval" fill="#56F4F8" cx="18.1034483" cy="35.3448276" r="10.3448276"></circle>
            <g id="Group" fill="#353E4C">
                <path d="M1.47501733,49.6378495 L4.33156497,46.7991398 L7.18811261,49.6378495 C7.53436081,49.9819355 8.05373311,49.9819355 8.39998131,49.6378495 L11.2565289,46.7991398 L14.1130766,49.6378495 C14.4593248,49.9819355 14.9786971,49.9819355 15.3249453,49.6378495 L18.1814929,46.7991398 L21.0380406,49.6378495 C21.3842888,49.9819355 21.9036611,49.9819355 22.2499093,49.6378495 L25.1064569,46.7991398 L27.9630045,49.6378495 C28.3092527,49.9819355 28.828625,49.9819355 29.1748732,49.6378495 L32.0314209,46.7991398 L34.8879685,49.6378495 C35.0610926,49.8098925 35.2342167,49.895914 35.4939029,49.895914 C35.5804649,49.895914 35.753589,49.895914 35.8401511,49.8098925 C36.1863993,49.6378495 36.3595234,49.3797849 36.3595234,49.0356989 L36.3595234,0.863655914 C36.3595234,0.519569892 36.1863993,0.175483871 35.8401511,0.0894623656 C35.4939029,-0.0825806452 35.1476547,0.00344086022 34.8879685,0.261505376 L32.0314209,3.10021505 L29.1748732,0.261505376 C28.828625,-0.0825806452 28.3092527,-0.0825806452 27.9630045,0.261505376 L25.1064569,3.10021505 L22.2499093,0.261505376 C21.9036611,-0.0825806452 21.3842888,-0.0825806452 21.0380406,0.261505376 L18.1814929,3.10021505 L15.3249453,0.261505376 C14.9786971,-0.0825806452 14.4593248,-0.0825806452 14.1130766,0.261505376 L11.2565289,3.10021505 L8.39998131,0.261505376 C8.05373311,-0.0825806452 7.53436081,-0.0825806452 7.18811261,0.261505376 L4.33156497,3.10021505 L1.47501733,0.261505376 C1.21533118,0.00344086022 0.869082979,-0.0825806452 0.52283478,0.0894623656 C0.176586581,0.175483871 0.00346248199,0.519569892 0.00346248199,0.863655914 L0.00346248199,49.0356989 C0.00346248199,49.3797849 0.176586581,49.723871 0.52283478,49.8098925 C0.869082979,49.9819355 1.21533118,49.895914 1.47501733,49.6378495 Z M1.73470348,2.92817204 L3.72563062,4.90666667 C4.07187882,5.25075269 4.59125112,5.25075269 4.93749932,4.90666667 L7.79404696,2.06795699 L10.6505946,4.90666667 C10.9968428,5.25075269 11.5162151,5.25075269 11.8624633,4.90666667 L14.7190109,2.06795699 L17.5755586,4.90666667 C17.9218068,5.25075269 18.4411791,5.25075269 18.7874273,4.90666667 L21.6439749,2.06795699 L24.5005226,4.90666667 C24.8467708,5.25075269 25.3661431,5.25075269 25.7123912,4.90666667 L28.5689389,2.06795699 L31.4254865,4.90666667 C31.7717347,5.25075269 32.291107,5.25075269 32.6373552,4.90666667 L34.6282824,2.92817204 L34.6282824,46.9711828 L32.6373552,44.9926882 C32.291107,44.6486022 31.7717347,44.6486022 31.4254865,44.9926882 L28.5689389,47.8313978 L25.7123912,44.9926882 C25.5392672,44.8206452 25.3661431,44.7346237 25.1064569,44.7346237 C24.8467708,44.7346237 24.6736467,44.8206452 24.5005226,44.9926882 L21.6439749,47.8313978 L18.7874273,44.9926882 C18.4411791,44.6486022 17.9218068,44.6486022 17.5755586,44.9926882 L14.7190109,47.8313978 L11.8624633,44.9926882 C11.5162151,44.6486022 10.9968428,44.6486022 10.6505946,44.9926882 L7.79404696,47.8313978 L4.93749932,44.9926882 C4.59125112,44.6486022 4.07187882,44.6486022 3.72563062,44.9926882 L1.73470348,46.9711828 L1.73470348,2.92817204 Z" id="Shape"></path>
                <path d="M18.1814929,43.0141935 C24.4139605,43.0141935 29.4345594,38.0249462 29.4345594,31.8313978 C29.4345594,25.6378495 24.4139605,20.6486022 18.1814929,20.6486022 C11.9490253,20.6486022 6.92842646,25.6378495 6.92842646,31.8313978 C6.92842646,38.0249462 11.9490253,43.0141935 18.1814929,43.0141935 Z M18.1814929,22.3690323 C23.461778,22.3690323 27.7033184,26.584086 27.7033184,31.8313978 C27.7033184,37.0787097 23.461778,41.2937634 18.1814929,41.2937634 C12.9012079,41.2937634 8.65966745,37.0787097 8.65966745,31.8313978 C8.65966745,26.584086 12.9012079,22.3690323 18.1814929,22.3690323 Z" id="Shape"></path>
                <path d="M7.79404696,8.6055914 L21.6439749,8.6055914 C22.1633472,8.6055914 22.5095954,8.26150538 22.5095954,7.74537634 C22.5095954,7.22924731 22.1633472,6.88516129 21.6439749,6.88516129 L7.79404696,6.88516129 C7.27467466,6.88516129 6.92842646,7.22924731 6.92842646,7.74537634 C6.92842646,8.26150538 7.27467466,8.6055914 7.79404696,8.6055914 Z" id="Shape"></path>
                <path d="M25.1064569,8.6055914 L28.5689389,8.6055914 C29.0883112,8.6055914 29.4345594,8.26150538 29.4345594,7.74537634 C29.4345594,7.22924731 29.0883112,6.88516129 28.5689389,6.88516129 L25.1064569,6.88516129 C24.5870846,6.88516129 24.2408364,7.22924731 24.2408364,7.74537634 C24.2408364,8.26150538 24.5870846,8.6055914 25.1064569,8.6055914 Z" id="Shape"></path>
                <path d="M7.79404696,12.0464516 L11.2565289,12.0464516 C11.7759012,12.0464516 12.1221494,11.7023656 12.1221494,11.1862366 C12.1221494,10.6701075 11.7759012,10.3260215 11.2565289,10.3260215 L7.79404696,10.3260215 C7.27467466,10.3260215 6.92842646,10.6701075 6.92842646,11.1862366 C6.92842646,11.7023656 7.27467466,12.0464516 7.79404696,12.0464516 Z" id="Shape"></path>
                <path d="M28.5689389,10.3260215 L14.7190109,10.3260215 C14.1996386,10.3260215 13.8533904,10.6701075 13.8533904,11.1862366 C13.8533904,11.7023656 14.1996386,12.0464516 14.7190109,12.0464516 L28.5689389,12.0464516 C29.0883112,12.0464516 29.4345594,11.7023656 29.4345594,11.1862366 C29.4345594,10.6701075 29.0883112,10.3260215 28.5689389,10.3260215 Z" id="Shape"></path>
                <path d="M7.79404696,15.4873118 L18.1814929,15.4873118 C18.7008652,15.4873118 19.0471134,15.1432258 19.0471134,14.6270968 C19.0471134,14.1109677 18.7008652,13.7668817 18.1814929,13.7668817 L7.79404696,13.7668817 C7.27467466,13.7668817 6.92842646,14.1109677 6.92842646,14.6270968 C6.92842646,15.1432258 7.27467466,15.4873118 7.79404696,15.4873118 Z" id="Shape"></path>
                <path d="M28.5689389,13.7668817 L21.6439749,13.7668817 C21.1246026,13.7668817 20.7783544,14.1109677 20.7783544,14.6270968 C20.7783544,15.1432258 21.1246026,15.4873118 21.6439749,15.4873118 L28.5689389,15.4873118 C29.0883112,15.4873118 29.4345594,15.1432258 29.4345594,14.6270968 C29.4345594,14.1109677 29.0883112,13.7668817 28.5689389,13.7668817 Z" id="Shape"></path>
                <path d="M19.9127339,34.412043 L14.7190109,34.412043 C14.1996386,34.412043 13.8533904,34.756129 13.8533904,35.2722581 C13.8533904,35.7883871 14.1996386,36.1324731 14.7190109,36.1324731 L17.3158724,36.1324731 L17.3158724,38.7131183 C17.3158724,39.2292473 17.6621206,39.5733333 18.1814929,39.5733333 C18.7008652,39.5733333 19.0471134,39.2292473 19.0471134,38.7131183 L19.0471134,36.1324731 L19.9127339,36.1324731 C21.3842888,36.1324731 22.5095954,35.0141935 22.5095954,33.551828 C22.5095954,32.0894624 21.3842888,30.9711828 19.9127339,30.9711828 L16.4502519,30.9711828 C15.9308796,30.9711828 15.5846314,30.6270968 15.5846314,30.1109677 C15.5846314,29.5948387 15.9308796,29.2507527 16.4502519,29.2507527 L21.6439749,29.2507527 C22.1633472,29.2507527 22.5095954,28.9066667 22.5095954,28.3905376 C22.5095954,27.8744086 22.1633472,27.5303226 21.6439749,27.5303226 L19.0471134,27.5303226 L19.0471134,24.9496774 C19.0471134,24.4335484 18.7008652,24.0894624 18.1814929,24.0894624 C17.6621206,24.0894624 17.3158724,24.4335484 17.3158724,24.9496774 L17.3158724,27.5303226 L16.4502519,27.5303226 C14.9786971,27.5303226 13.8533904,28.6486022 13.8533904,30.1109677 C13.8533904,31.5733333 14.9786971,32.6916129 16.4502519,32.6916129 L19.9127339,32.6916129 C20.4321062,32.6916129 20.7783544,33.0356989 20.7783544,33.551828 C20.7783544,34.067957 20.4321062,34.412043 19.9127339,34.412043 Z" id="Shape"></path>
                <path d="M7.79404696,18.928172 L28.5689389,18.928172 C29.0883112,18.928172 29.4345594,18.584086 29.4345594,18.067957 C29.4345594,17.551828 29.0883112,17.2077419 28.5689389,17.2077419 L7.79404696,17.2077419 C7.27467466,17.2077419 6.92842646,17.551828 6.92842646,18.067957 C6.92842646,18.584086 7.27467466,18.928172 7.79404696,18.928172 Z" id="Shape"></path>
            </g>
        </g>
    </g>
</svg>