<?xml version="1.0" encoding="UTF-8"?>
<svg width="50px" height="39px" viewBox="0 0 50 39" version="1.1" xmlns="http://www.w3.org/2000/svg" xmlns:xlink="http://www.w3.org/1999/xlink">
    <!-- Generator: Sketch 50.2 (55047) - http://www.bohemiancoding.com/sketch -->
    <title>money</title>
    <desc>Created with Sketch.</desc>
    <defs></defs>
    <g id="Page-1" stroke="none" stroke-width="1" fill="none" fill-rule="evenodd">
        <g id="money" fill-rule="nonzero">
            <path d="M45.6896552,11.2068966 L4.31034483,11.2068966 C2.4137931,11.2068966 0.862068966,12.7586207 0.862068966,14.6551724 L0.862068966,35.3448276 C0.862068966,37.2413793 2.4137931,38.7931034 4.31034483,38.7931034 L45.6896552,38.7931034 C47.5862069,38.7931034 49.137931,37.2413793 49.137931,35.3448276 L49.137931,14.6551724 C49.137931,12.7586207 47.5862069,11.2068966 45.6896552,11.2068966 Z M25,35.3448276 C19.3103448,35.3448276 14.6551724,30.6896552 14.6551724,25 C14.6551724,19.3103448 19.3103448,14.6551724 25,14.6551724 C30.6896552,14.6551724 35.3448276,19.3103448 35.3448276,25 C35.3448276,30.6896552 30.6896552,35.3448276 25,35.3448276 Z" id="Shape" fill="#56F4F8"></path>
            <g id="Group" fill="#353E4C">
                <path d="M45.6896552,6.89655172 L4.31034483,6.89655172 C1.89655172,6.89655172 0,8.79310345 0,11.2068966 L0,31.8965517 C0,34.3103448 1.89655172,36.2068966 4.31034483,36.2068966 L45.6896552,36.2068966 C48.1034483,36.2068966 50,34.3103448 50,31.8965517 L50,11.2068966 C50,8.79310345 48.1034483,6.89655172 45.6896552,6.89655172 Z M48.2758621,31.8965517 C48.2758621,33.362069 47.1551724,34.4827586 45.6896552,34.4827586 L4.31034483,34.4827586 C2.84482759,34.4827586 1.72413793,33.362069 1.72413793,31.8965517 L1.72413793,11.2068966 C1.72413793,9.74137931 2.84482759,8.62068966 4.31034483,8.62068966 L45.6896552,8.62068966 C47.1551724,8.62068966 48.2758621,9.74137931 48.2758621,11.2068966 L48.2758621,31.8965517 Z" id="Shape"></path>
                <path d="M3.44827586,4.31034483 C3.44827586,4.82758621 3.79310345,5.17241379 4.31034483,5.17241379 L45.6896552,5.17241379 C46.2068966,5.17241379 46.5517241,4.82758621 46.5517241,4.31034483 C46.5517241,3.79310345 46.2068966,3.44827586 45.6896552,3.44827586 L4.31034483,3.44827586 C3.79310345,3.44827586 3.44827586,3.79310345 3.44827586,4.31034483 Z" id="Shape"></path>
                <path d="M42.2413793,0 L7.75862069,0 C7.24137931,0 6.89655172,0.344827586 6.89655172,0.862068966 C6.89655172,1.37931034 7.24137931,1.72413793 7.75862069,1.72413793 L42.2413793,1.72413793 C42.7586207,1.72413793 43.1034483,1.37931034 43.1034483,0.862068966 C43.1034483,0.344827586 42.7586207,0 42.2413793,0 Z" id="Shape"></path>
                <path d="M25,10.3448276 C18.7931034,10.3448276 13.7931034,15.3448276 13.7931034,21.5517241 C13.7931034,27.7586207 18.7931034,32.7586207 25,32.7586207 C31.2068966,32.7586207 36.2068966,27.7586207 36.2068966,21.5517241 C36.2068966,15.3448276 31.2068966,10.3448276 25,10.3448276 Z M25,31.0344828 C19.7413793,31.0344828 15.5172414,26.8103448 15.5172414,21.5517241 C15.5172414,16.2931034 19.7413793,12.0689655 25,12.0689655 C30.2586207,12.0689655 34.4827586,16.2931034 34.4827586,21.5517241 C34.4827586,26.8103448 30.2586207,31.0344828 25,31.0344828 Z" id="Shape"></path>
                <path d="M23.2758621,18.9655172 L28.4482759,18.9655172 C28.9655172,18.9655172 29.3103448,18.6206897 29.3103448,18.1034483 C29.3103448,17.5862069 28.9655172,17.2413793 28.4482759,17.2413793 L25.862069,17.2413793 L25.862069,14.6551724 C25.862069,14.137931 25.5172414,13.7931034 25,13.7931034 C24.4827586,13.7931034 24.137931,14.137931 24.137931,14.6551724 L24.137931,17.2413793 L23.2758621,17.2413793 C21.8103448,17.2413793 20.6896552,18.362069 20.6896552,19.8275862 C20.6896552,21.2931034 21.8103448,22.4137931 23.2758621,22.4137931 L26.7241379,22.4137931 C27.2413793,22.4137931 27.5862069,22.7586207 27.5862069,23.2758621 C27.5862069,23.7931034 27.2413793,24.137931 26.7241379,24.137931 L21.5517241,24.137931 C21.0344828,24.137931 20.6896552,24.4827586 20.6896552,25 C20.6896552,25.5172414 21.0344828,25.862069 21.5517241,25.862069 L24.137931,25.862069 L24.137931,28.4482759 C24.137931,28.9655172 24.4827586,29.3103448 25,29.3103448 C25.5172414,29.3103448 25.862069,28.9655172 25.862069,28.4482759 L25.862069,25.862069 L26.7241379,25.862069 C28.1896552,25.862069 29.3103448,24.7413793 29.3103448,23.2758621 C29.3103448,21.8103448 28.1896552,20.6896552 26.7241379,20.6896552 L23.2758621,20.6896552 C22.7586207,20.6896552 22.4137931,20.3448276 22.4137931,19.8275862 C22.4137931,19.3103448 22.7586207,18.9655172 23.2758621,18.9655172 Z" id="Shape"></path>
                <path d="M38.7931034,18.9655172 L42.2413793,18.9655172 C42.7586207,18.9655172 43.1034483,18.6206897 43.1034483,18.1034483 C43.1034483,17.5862069 42.7586207,17.2413793 42.2413793,17.2413793 L38.7931034,17.2413793 C38.2758621,17.2413793 37.9310345,17.5862069 37.9310345,18.1034483 C37.9310345,18.6206897 38.2758621,18.9655172 38.7931034,18.9655172 Z" id="Shape"></path>
                <path d="M45.6896552,20.6896552 L38.7931034,20.6896552 C38.2758621,20.6896552 37.9310345,21.0344828 37.9310345,21.5517241 C37.9310345,22.0689655 38.2758621,22.4137931 38.7931034,22.4137931 L45.6896552,22.4137931 C46.2068966,22.4137931 46.5517241,22.0689655 46.5517241,21.5517241 C46.5517241,21.0344828 46.2068966,20.6896552 45.6896552,20.6896552 Z" id="Shape"></path>
                <path d="M42.2413793,25.862069 C42.7586207,25.862069 43.1034483,25.5172414 43.1034483,25 C43.1034483,24.4827586 42.7586207,24.137931 42.2413793,24.137931 L38.7931034,24.137931 C38.2758621,24.137931 37.9310345,24.4827586 37.9310345,25 C37.9310345,25.5172414 38.2758621,25.862069 38.7931034,25.862069 L42.2413793,25.862069 Z" id="Shape"></path>
                <path d="M7.75862069,17.2413793 C7.24137931,17.2413793 6.89655172,17.5862069 6.89655172,18.1034483 C6.89655172,18.6206897 7.24137931,18.9655172 7.75862069,18.9655172 L11.2068966,18.9655172 C11.7241379,18.9655172 12.0689655,18.6206897 12.0689655,18.1034483 C12.0689655,17.5862069 11.7241379,17.2413793 11.2068966,17.2413793 L7.75862069,17.2413793 Z" id="Shape"></path>
                <path d="M4.31034483,22.4137931 L11.2068966,22.4137931 C11.7241379,22.4137931 12.0689655,22.0689655 12.0689655,21.5517241 C12.0689655,21.0344828 11.7241379,20.6896552 11.2068966,20.6896552 L4.31034483,20.6896552 C3.79310345,20.6896552 3.44827586,21.0344828 3.44827586,21.5517241 C3.44827586,22.0689655 3.79310345,22.4137931 4.31034483,22.4137931 Z" id="Shape"></path>
                <path d="M11.2068966,24.137931 L7.75862069,24.137931 C7.24137931,24.137931 6.89655172,24.4827586 6.89655172,25 C6.89655172,25.5172414 7.24137931,25.862069 7.75862069,25.862069 L11.2068966,25.862069 C11.7241379,25.862069 12.0689655,25.5172414 12.0689655,25 C12.0689655,24.4827586 11.7241379,24.137931 11.2068966,24.137931 Z" id="Shape"></path>
                <path d="M14.6551724,31.0344828 L4.31034483,31.0344828 C3.79310345,31.0344828 3.44827586,31.3793103 3.44827586,31.8965517 C3.44827586,32.4137931 3.79310345,32.7586207 4.31034483,32.7586207 L14.6551724,32.7586207 C15.1724138,32.7586207 15.5172414,32.4137931 15.5172414,31.8965517 C15.5172414,31.3793103 15.1724138,31.0344828 14.6551724,31.0344828 Z" id="Shape"></path>
                <path d="M45.6896552,31.0344828 L35.3448276,31.0344828 C34.8275862,31.0344828 34.4827586,31.3793103 34.4827586,31.8965517 C34.4827586,32.4137931 34.8275862,32.7586207 35.3448276,32.7586207 L45.6896552,32.7586207 C46.2068966,32.7586207 46.5517241,32.4137931 46.5517241,31.8965517 C46.5517241,31.3793103 46.2068966,31.0344828 45.6896552,31.0344828 Z" id="Shape"></path>
                <path d="M4.31034483,12.0689655 L14.6551724,12.0689655 C15.1724138,12.0689655 15.5172414,11.7241379 15.5172414,11.2068966 C15.5172414,10.6896552 15.1724138,10.3448276 14.6551724,10.3448276 L4.31034483,10.3448276 C3.79310345,10.3448276 3.44827586,10.6896552 3.44827586,11.2068966 C3.44827586,11.7241379 3.79310345,12.0689655 4.31034483,12.0689655 Z" id="Shape"></path>
                <path d="M45.6896552,10.3448276 L35.3448276,10.3448276 C34.8275862,10.3448276 34.4827586,10.6896552 34.4827586,11.2068966 C34.4827586,11.7241379 34.8275862,12.0689655 35.3448276,12.0689655 L45.6896552,12.0689655 C46.2068966,12.0689655 46.5517241,11.7241379 46.5517241,11.2068966 C46.5517241,10.6896552 46.2068966,10.3448276 45.6896552,10.3448276 Z" id="Shape"></path>
            </g>
        </g>
    </g>
</svg>