<?xml version="1.0" encoding="UTF-8"?>
<svg width="50px" height="49px" viewBox="0 0 50 49" version="1.1" xmlns="http://www.w3.org/2000/svg" xmlns:xlink="http://www.w3.org/1999/xlink">
    <!-- Generator: Sketch 50.2 (55047) - http://www.bohemiancoding.com/sketch -->
    <title>pen</title>
    <desc>Created with Sketch.</desc>
    <defs></defs>
    <g id="Page-1" stroke="none" stroke-width="1" fill="none" fill-rule="evenodd">
        <g id="pen" fill-rule="nonzero">
            <path d="M35.7758621,5.59267241 L18.0172414,23.3512931 L28.362069,33.6961207 L46.637931,15.4202586 C48.0172414,14.0409483 48.0172414,11.8857759 46.637931,10.5064655 L41.637931,5.50646552 C40,3.95474138 37.4137931,3.95474138 35.7758621,5.59267241 Z" id="Shape" fill="#56F4F8"></path>
            <g id="Group" fill="#353E4C">
                <path d="M47.2413793,6.54094828 L42.2413793,1.54094828 C40.2586207,-0.441810345 37.0689655,-0.441810345 35.1724138,1.54094828 L17.4137931,19.299569 C17.4137931,19.299569 17.4137931,19.299569 17.4137931,19.3857759 C17.3275862,19.4719828 17.3275862,19.4719828 17.2413793,19.5581897 L17.2413793,19.6443966 C17.2413793,19.7306034 17.1551724,19.8168103 17.1551724,19.9030172 L17.1551724,21.8857759 C17.1551724,22.575431 16.8965517,23.2650862 16.3793103,23.6961207 L3.62068966,36.5409483 C3.53448276,36.6271552 3.44827586,36.7133621 3.44827586,36.8857759 L0,47.2306034 C0,47.3168103 0,47.4030172 0,47.4892241 C0,47.575431 0,47.6616379 0.0862068966,47.7478448 L0.0862068966,47.8340517 C0.0862068966,47.9202586 0.172413793,48.0064655 0.25862069,48.0926724 C0.344827586,48.1788793 0.431034483,48.2650862 0.517241379,48.2650862 C0.517241379,48.3512931 0.689655172,48.3512931 0.775862069,48.3512931 L21.4655172,48.3512931 C21.9827586,48.3512931 22.3275862,48.0064655 22.3275862,47.4892241 C22.3275862,46.9719828 21.9827586,46.6271552 21.4655172,46.6271552 L6.12068966,46.6271552 L11.4655172,44.8168103 C11.5517241,44.8168103 11.7241379,44.7306034 11.8103448,44.6443966 L24.5689655,31.8857759 C25.0862069,31.3685345 25.6896552,31.1099138 26.3793103,31.1099138 L28.362069,31.1099138 C28.4482759,31.1099138 28.6206897,31.1099138 28.7068966,31.0237069 C28.7931034,30.9375 28.8793103,30.9375 28.9655172,30.8512931 L47.2413793,12.575431 C47.6724138,12.1443966 48.0172414,11.6271552 48.1896552,11.1099138 C48.1896552,11.1961207 48.1896552,11.1961207 48.1896552,11.2823276 C48.1896552,12.1443966 47.8448276,13.0064655 47.2413793,13.6099138 L34.6551724,26.1961207 C34.3103448,26.5409483 34.3103448,27.0581897 34.6551724,27.4030172 C34.8275862,27.575431 35.0862069,27.6616379 35.2586207,27.6616379 C35.4310345,27.6616379 35.6896552,27.575431 35.862069,27.4030172 L48.4482759,14.8168103 C49.3965517,13.8685345 49.9137931,12.575431 49.9137931,11.2823276 C49.9137931,9.98922414 49.3965517,8.69612069 48.4482759,7.74784483 L47.2413793,6.54094828 Z M4.56896552,38.7823276 L9.48275862,43.6961207 L2.06896552,46.1961207 L4.56896552,38.7823276 Z M46.0344828,11.3685345 L28.0172414,29.3857759 L26.3793103,29.3857759 C25.2586207,29.3857759 24.137931,29.8168103 23.362069,30.6788793 L11.1206897,42.8340517 L5.43103448,37.1443966 L17.5862069,24.9892241 C18.362069,24.2133621 18.7931034,23.0926724 18.8793103,21.9719828 L24.3103448,27.4030172 C24.6551724,27.7478448 25.1724138,27.7478448 25.5172414,27.4030172 C25.862069,27.0581897 25.862069,26.5409483 25.5172414,26.1961207 L19.2241379,19.9030172 L36.3793103,2.74784483 C37.6724138,1.45474138 39.7413793,1.45474138 41.0344828,2.74784483 L46.0344828,7.74784483 C46.9827586,8.69612069 46.9827586,10.4202586 46.0344828,11.3685345 Z" id="Shape"></path>
                <path d="M17.4137931,26.1961207 L7.06896552,36.5409483 C6.72413793,36.8857759 6.72413793,37.4030172 7.06896552,37.7478448 C7.24137931,37.9202586 7.5,38.0064655 7.67241379,38.0064655 C7.84482759,38.0064655 8.10344828,37.9202586 8.27586207,37.7478448 L18.6206897,27.4030172 C18.9655172,27.0581897 18.9655172,26.5409483 18.6206897,26.1961207 C18.2758621,25.8512931 17.7586207,25.8512931 17.4137931,26.1961207 Z" id="Shape"></path>
                <path d="M38.1034483,5.50646552 L31.2068966,12.4030172 C30.862069,12.7478448 30.862069,13.2650862 31.2068966,13.6099138 C31.3793103,13.7823276 31.637931,13.8685345 31.8103448,13.8685345 C31.9827586,13.8685345 32.2413793,13.7823276 32.4137931,13.6099138 L39.3103448,6.71336207 C39.6551724,6.36853448 39.6551724,5.8512931 39.3103448,5.50646552 C38.9655172,5.16163793 38.4482759,5.16163793 38.1034483,5.50646552 Z" id="Shape"></path>
                <path d="M31.8103448,10.4202586 C32.0689655,10.4202586 32.2413793,10.3340517 32.4137931,10.1616379 L35.862069,6.71336207 C36.2068966,6.36853448 36.2068966,5.8512931 35.862069,5.50646552 C35.5172414,5.16163793 35,5.16163793 34.6551724,5.50646552 L31.2068966,8.95474138 C30.862069,9.29956897 30.862069,9.81681034 31.2068966,10.1616379 C31.3793103,10.3340517 31.5517241,10.4202586 31.8103448,10.4202586 Z" id="Shape"></path>
                <path d="M38.1034483,8.95474138 L34.6551724,12.4030172 C34.3103448,12.7478448 34.3103448,13.2650862 34.6551724,13.6099138 C34.8275862,13.7823276 35.0862069,13.8685345 35.2586207,13.8685345 C35.4310345,13.8685345 35.6896552,13.7823276 35.862069,13.6099138 L39.3103448,10.1616379 C39.6551724,9.81681034 39.6551724,9.29956897 39.3103448,8.95474138 C38.9655172,8.60991379 38.4482759,8.60991379 38.1034483,8.95474138 Z" id="Shape"></path>
                <path d="M24.9137931,48.3512931 L38.7068966,48.3512931 C39.2241379,48.3512931 39.5689655,48.0064655 39.5689655,47.4892241 C39.5689655,46.9719828 39.2241379,46.6271552 38.7068966,46.6271552 L24.9137931,46.6271552 C24.3965517,46.6271552 24.0517241,46.9719828 24.0517241,47.4892241 C24.0517241,48.0064655 24.3965517,48.3512931 24.9137931,48.3512931 Z" id="Shape"></path>
                <path d="M45.6034483,48.3512931 C46.1206897,48.3512931 46.4655172,48.0064655 46.4655172,47.4892241 C46.4655172,46.9719828 46.1206897,46.6271552 45.6034483,46.6271552 L42.1551724,46.6271552 C41.637931,46.6271552 41.2931034,46.9719828 41.2931034,47.4892241 C41.2931034,48.0064655 41.637931,48.3512931 42.1551724,48.3512931 L45.6034483,48.3512931 Z" id="Shape"></path>
            </g>
        </g>
    </g>
</svg>