<?xml version="1.0" encoding="UTF-8"?>
<svg width="50px" height="46px" viewBox="0 0 50 46" version="1.1" xmlns="http://www.w3.org/2000/svg" xmlns:xlink="http://www.w3.org/1999/xlink">
    <!-- Generator: Sketch 50.2 (55047) - http://www.bohemiancoding.com/sketch -->
    <title>user-4</title>
    <desc>Created with Sketch.</desc>
    <defs></defs>
    <g id="Page-1" stroke="none" stroke-width="1" fill="none" fill-rule="evenodd">
        <g id="user-4" fill-rule="nonzero">
            <path d="M13.9655172,37.4923491 L19.3534483,43.2337284 C19.5086207,43.3975216 19.6724138,43.5613147 19.8362069,43.7078664 C22.7758621,46.3457974 27.2413793,46.3544181 30.1724138,43.7078664 C30.3362069,43.5613147 30.4913793,43.4061422 30.6465517,43.2423491 L36.0344828,37.4923491 C37.7672414,36.1820043 38.7931034,34.1302802 38.7931034,31.9578664 L38.7931034,31.9320043 C38.7931034,30.0182112 37.25,28.4483836 35.3448276,28.4483836 L33.3275862,28.4483836 C32.4137931,28.4483836 31.5344828,28.1044181 30.887931,27.4578664 L28.4482759,25.0182112 L28.0172414,24.578556 C27.0689655,24.8716595 26.0517241,25.0268319 25,25.0268319 C23.9482759,25.0268319 22.9396552,24.8716595 21.9913793,24.578556 L21.5517241,25.0268319 L19.8275862,26.7509698 L19.112069,27.4570043 C18.4655172,28.1044181 17.5862069,28.4483836 16.6724138,28.4483836 L14.6551724,28.4483836 C12.75,28.4483836 11.2068966,30.0182112 11.2068966,31.9320043 L11.2068966,31.940625 C11.2068966,34.1216595 12.2327586,36.1820043 13.9655172,37.4923491 Z" id="Shape" fill="#56F4F8"></path>
            <g id="Group" fill="#353E4C">
                <path d="M3.04482759,34.6992457 L8.38448276,40.3837284 C10.0905172,42.2001078 12.3741379,43.1225216 14.6663793,43.1225216 C16.4810345,43.1225216 18.2982759,42.5397629 19.8405172,41.3725216 C21.3198276,42.490625 23.1051724,43.1018319 25.0017241,43.1018319 C26.9,43.1018319 28.6853448,42.4897629 30.1646552,41.3699353 C31.7077586,42.5397629 33.5267241,43.1233836 35.3422414,43.1233836 C37.6336207,43.1233836 39.9181034,42.2018319 41.6241379,40.3845905 L46.9586207,34.7001078 C48.8655172,33.2363147 50,30.9337284 50,28.4914871 C50,26.0914871 48.0681034,24.1380388 45.6922414,24.1380388 L43.6715517,24.1380388 C42.9594828,24.1380388 42.3094828,23.8794181 41.8405172,23.4087284 L39.9112069,21.4880388 C43.8198276,19.7354526 46.5543103,15.815625 46.5543103,11.2630388 C46.5543103,5.08372845 41.525,0.0561422414 35.3431034,0.0561422414 C33.5612069,0.0561422414 31.8112069,0.49924569 30.2353448,1.30614224 C28.7931034,0.540625 27.1637931,0.089762931 25.437069,0.0225215517 C25.3818966,0.0199353448 25.3267241,0.015625 25.2706897,0.0139008621 C25.1801724,0.0113146552 25.0913793,0.000107758621 25,0.000107758621 C24.8224138,0.000107758621 24.65,0.0182112069 24.475,0.0268318966 C24.3706897,0.0311422414 24.2663793,0.0354525862 24.162069,0.0423491379 C23.9241379,0.0604525862 23.6896552,0.0871767241 23.4551724,0.119073276 C23.3232759,0.137176724 23.1913793,0.15700431 23.0603448,0.179418103 C22.8543103,0.215625 22.6508621,0.25700431 22.4491379,0.304418103 C22.2836207,0.342349138 22.1189655,0.386314655 21.9551724,0.43200431 C21.7913793,0.478556034 21.6293103,0.525969828 21.4689655,0.579418103 C21.262069,0.647521552 21.0568966,0.72424569 20.8534483,0.805280172 C20.7413793,0.850107759 20.6284483,0.894073276 20.5181034,0.943211207 C20.2715517,1.05010776 20.0293103,1.16907328 19.7896552,1.29493534 C19.7827586,1.29838362 19.7758621,1.30096983 19.7689655,1.30528017 C18.1956897,0.49924569 16.4474138,0.0570043103 14.6672414,0.0570043103 C8.48448276,0.0570043103 3.45517241,5.08459052 3.45517241,11.2639009 C3.45517241,15.8164871 6.18965517,19.7363147 10.0991379,21.4889009 L8.16724138,23.4113147 C7.69913793,23.8802802 7.05,24.1380388 6.33793103,24.1380388 L4.31637931,24.1380388 C1.9362069,24.1380388 0,26.0914871 0,28.5242457 C0,30.9320043 1.13706897,33.2345905 3.04482759,34.6992457 Z M19.9793103,39.1983836 L14.5948276,33.4509698 C14.5612069,33.4147629 14.5241379,33.3820043 14.4844828,33.3518319 C12.9724138,32.2121767 12.0689655,30.3966595 12.0689655,28.4837284 C12.0689655,27.0380388 13.2293103,25.8621767 14.6551724,25.8621767 L16.675,25.8621767 C17.8413793,25.8621767 18.9241379,25.4190733 19.7224138,24.6190733 L19.8241379,24.5182112 L23.9508621,28.6380388 L20.7810345,34.9690733 C20.6155172,35.3009698 20.6801724,35.702694 20.9431034,35.9647629 L24.3913793,39.4087284 C24.5594828,39.5759698 24.7801724,39.6604526 25.0008621,39.6604526 C25.2215517,39.6604526 25.4422414,39.5759698 25.6103448,39.4087284 L29.0586207,35.9647629 C29.3215517,35.7018319 29.3862069,35.3001078 29.2206897,34.9690733 L26.0508621,28.6380388 L30.1810345,24.5207974 L30.2767241,24.6164871 C31.0758621,25.4190733 32.1594828,25.8621767 33.325,25.8621767 L35.3448276,25.8621767 C36.7706897,25.8621767 37.9310345,27.0380388 37.9310345,28.5044181 C37.9310345,30.402694 37.0275862,32.2173491 35.5155172,33.3561422 C35.4758621,33.3854526 35.4387931,33.4190733 35.4051724,33.4552802 L30.0206897,39.1992457 C28.7043103,40.603556 26.9215517,41.3759698 25.0017241,41.3759698 C23.0801724,41.3768319 21.2965517,40.603556 19.9793103,39.1983836 Z M21.4603448,2.41734914 C21.65,2.340625 21.8422414,2.26993534 22.037931,2.20528017 C22.1594828,2.165625 22.2810345,2.1294181 22.4043103,2.09493534 C22.5456897,2.0544181 22.6887931,2.01821121 22.8327586,1.98459052 C22.9922414,1.94752155 23.1508621,1.91217672 23.312069,1.88372845 C23.4155172,1.86476293 23.5215517,1.85096983 23.6267241,1.83545259 C23.8198276,1.80786638 24.012931,1.78028017 24.2077586,1.76390086 C24.2422414,1.76131466 24.2767241,1.76131466 24.3112069,1.75872845 C25.3517241,1.68545259 26.4008621,1.78028017 27.4146552,2.04665948 C27.4198276,2.04838362 27.4258621,2.04924569 27.4310345,2.05096983 C27.6836207,2.11821121 27.9336207,2.19579741 28.1810345,2.28372845 C28.1965517,2.28890086 28.2112069,2.29493534 28.2267241,2.30010776 C28.4672414,2.38717672 28.7051724,2.48372845 28.9396552,2.590625 C28.9594828,2.60010776 28.9793103,2.60959052 28.9991379,2.61907328 C29.2301724,2.7268319 29.4577586,2.84234914 29.6810345,2.96907328 C29.6965517,2.97769397 29.7112069,2.98803879 29.7267241,2.99665948 C30.1922414,3.26476293 30.6405172,3.57338362 31.0637931,3.92510776 L29.3103448,5.67769397 L29.3103448,4.31045259 C29.3103448,3.96217672 29.1008621,3.64752155 28.7784483,3.51390086 C28.6715517,3.46993534 28.5594828,3.44838362 28.4482759,3.44838362 C28.2241379,3.44838362 28.0034483,3.53631466 27.8387931,3.70096983 L25.862069,5.67769397 L25.862069,4.31045259 C25.862069,3.96217672 25.6525862,3.64752155 25.3301724,3.51390086 C25.0086207,3.38114224 24.637069,3.45355603 24.3905172,3.70096983 L22.4137931,5.67769397 L22.4137931,4.31045259 C22.4137931,3.96217672 22.2043103,3.64752155 21.8818966,3.51390086 C21.5603448,3.38114224 21.1896552,3.45355603 20.9422414,3.70096983 L18.9655172,5.67769397 L18.9655172,3.90096983 C19.6543103,3.33028017 20.4258621,2.85786638 21.2568966,2.49838362 C21.3241379,2.46993534 21.3922414,2.44407328 21.4603448,2.41734914 Z M17.2413793,5.77769397 L17.2413793,7.75872845 C17.2413793,8.10700431 17.4508621,8.42165948 17.7732759,8.55528017 C18.0956897,8.68803879 18.4663793,8.615625 18.712931,8.36821121 L20.6896552,6.39148707 L20.6896552,7.75872845 C20.6896552,8.10700431 20.8991379,8.42165948 21.2215517,8.55528017 C21.5448276,8.68803879 21.9146552,8.615625 22.1612069,8.36821121 L24.137931,6.39148707 L24.137931,7.75872845 C24.137931,8.10700431 24.3474138,8.42165948 24.6698276,8.55528017 C24.9931034,8.68803879 25.362931,8.615625 25.6094828,8.36821121 L27.5862069,6.39148707 L27.5862069,7.75872845 C27.5862069,8.10700431 27.7956897,8.42165948 28.1181034,8.55528017 C28.225,8.59924569 28.337069,8.62079741 28.4482759,8.62079741 C28.6724138,8.62079741 28.8931034,8.53286638 29.0577586,8.36821121 L32.2801724,5.14579741 C33.6534483,6.79321121 34.4827586,8.91131466 34.4827586,11.2216595 C34.4827586,16.4587284 30.2284483,20.7190733 25,20.7190733 C19.7715517,20.7190733 15.5172414,16.4587284 15.5172414,11.2216595 C15.5172414,9.19579741 16.1586207,7.32079741 17.2413793,5.77769397 Z M22.2327586,22.0820043 C23.1198276,22.3087284 24.0431034,22.4423491 25,22.4423491 C25.9586207,22.4423491 26.8844828,22.3078664 27.7732759,22.0802802 C27.7974138,22.1121767 27.8094828,22.1501078 27.8387931,22.178556 L28.5844828,22.9242457 L25,24.115625 L21.4232759,22.9251078 L22.1603448,22.190625 C22.1922414,22.1587284 22.2068966,22.1173491 22.2327586,22.0820043 Z M25,30.3923491 L27.3991379,35.1845905 L25,37.5802802 L22.6008621,35.1845905 L25,30.3923491 Z M25.0008621,27.2492457 L23.0224138,25.2742457 L24.7284483,25.8414871 C24.9051724,25.9001078 25.0956897,25.9001078 25.2724138,25.8414871 L26.9827586,25.2733836 L25.0008621,27.2492457 Z M38.1844828,22.202694 L40.6215517,24.628556 C41.4146552,25.4242457 42.4982759,25.8621767 43.6715517,25.8621767 L45.6922414,25.8621767 C47.1163793,25.8621767 48.2758621,27.0414871 48.2758621,28.5242457 C48.2758621,30.4207974 47.3732759,32.2311422 45.862069,33.3682112 C45.8224138,33.3975216 45.7853448,33.4302802 45.7508621,33.4664871 L40.3663793,39.202694 C37.9965517,41.7268319 34.2362069,42.0845905 31.4646552,40.1794181 L36.6137931,34.6871767 C38.5198276,33.2216595 39.6551724,30.915625 39.6551724,28.4837284 C39.6551724,26.0880388 37.7215517,24.1380388 35.3448276,24.1380388 L33.325,24.1380388 C32.6206897,24.1380388 31.9715517,23.8751078 31.4956897,23.3983836 L29.5594828,21.4621767 C29.7594828,21.3725216 29.9568966,21.277694 30.1508621,21.1768319 C31.7482759,22.0130388 33.5275862,22.4716595 35.3431034,22.4716595 C36.3034483,22.4716595 37.2310345,22.3371767 38.1215517,22.1087284 C38.1448276,22.1389009 38.1568966,22.1751078 38.1844828,22.202694 Z M35.3431034,1.78114224 C40.5741379,1.78114224 44.8301724,6.03545259 44.8301724,11.2639009 C44.8301724,16.4923491 40.5741379,20.7466595 35.3431034,20.7466595 C34.1439655,20.7466595 32.962069,20.5121767 31.8577586,20.0768319 C34.4982759,18.0225216 36.2068966,14.8216595 36.2068966,11.2216595 C36.2068966,7.65528017 34.5310345,4.4794181 31.9336207,2.42252155 C33.0163793,2.00614224 34.1724138,1.78114224 35.3431034,1.78114224 Z M5.17844828,11.2639009 C5.17844828,6.03545259 9.43534483,1.78114224 14.6663793,1.78114224 C15.8327586,1.78114224 16.9827586,2.00528017 18.0612069,2.41821121 C18.0112069,2.45786638 17.9612069,2.49838362 17.912069,2.53890086 C17.8931034,2.5544181 17.8741379,2.56907328 17.8551724,2.58459052 C17.7517241,2.67079741 17.6431034,2.74752155 17.5422414,2.83717672 C17.5284483,2.84924569 17.5163793,2.86045259 17.5034483,2.87338362 C17.4931034,2.88200431 17.4836207,2.890625 17.4732759,2.89838362 L17.475,2.90010776 C17.4431034,2.93200431 17.4293103,2.96303879 17.4043103,2.99493534 C15.1896552,5.04665948 13.7931034,7.96993534 13.7931034,11.2216595 C13.7931034,14.8225216 15.5034483,18.0242457 18.1448276,20.0794181 C17.0422414,20.5130388 15.862069,20.7475216 14.6655172,20.7475216 C9.43448276,20.7466595 5.17844828,16.4923491 5.17844828,11.2639009 Z M4.31637931,25.8621767 L6.33793103,25.8621767 C7.51206897,25.8621767 8.59482759,25.4242457 9.38448276,24.6311422 L11.8241379,22.202694 C11.8517241,22.1751078 11.8637931,22.1389009 11.887069,22.1078664 C12.7775862,22.3363147 13.7051724,22.4707974 14.6663793,22.4707974 C16.4793103,22.4707974 18.2577586,22.0130388 19.8534483,21.177694 C20.0474138,21.278556 20.2448276,21.3742457 20.4456897,21.4639009 L18.5034483,23.3983836 C18.0284483,23.8751078 17.3793103,24.1380388 16.675,24.1380388 L14.6551724,24.1380388 C12.2784483,24.1380388 10.3448276,26.0880388 10.3448276,28.4949353 C10.3448276,30.9095905 11.4801724,33.2173491 13.3853448,34.6828664 L18.5396552,40.1837284 C15.7681034,42.0854526 12.0112069,41.727694 9.64137931,39.203556 L4.25172414,33.4673491 C4.21810345,33.4311422 4.18103448,33.3983836 4.14137931,33.3690733 C2.62844828,32.2294181 1.72413793,30.4182112 1.72413793,28.4914871 C1.72413793,27.0414871 2.88706897,25.8621767 4.31637931,25.8621767 Z" id="Shape"></path>
                <path d="M7.14913793,32.5061422 C7.31724138,32.6742457 7.53793103,32.7587284 7.75862069,32.7587284 C7.97931034,32.7587284 8.2,32.6742457 8.36810345,32.5061422 C8.70517241,32.1690733 8.70517241,31.6242457 8.36810345,31.2871767 L4.91982759,27.8389009 C4.58275862,27.5018319 4.03793103,27.5018319 3.70086207,27.8389009 C3.3637931,28.1759698 3.3637931,28.7207974 3.70086207,29.0578664 L7.14913793,32.5061422 Z" id="Shape"></path>
                <path d="M42.2413793,32.7587284 C42.462069,32.7587284 42.6827586,32.6742457 42.8508621,32.5061422 L46.2991379,29.0578664 C46.6362069,28.7207974 46.6362069,28.1759698 46.2991379,27.8389009 C45.962069,27.5018319 45.4172414,27.5018319 45.0801724,27.8389009 L41.6318966,31.2871767 C41.2948276,31.6242457 41.2948276,32.1690733 41.6318966,32.5061422 C41.8,32.6742457 42.0206897,32.7587284 42.2413793,32.7587284 Z" id="Shape"></path>
            </g>
        </g>
    </g>
</svg>